<?xml version="1.0" encoding="UTF-8"?>
<svg id="Capa_2" data-name="Capa 2" xmlns="http://www.w3.org/2000/svg" viewBox="0 0 736.32 1508.56">
  <defs>
    <style>
      .cls-1 {
        fill: #5e3819;
      }

      .cls-2 {
        fill: #e8e85b;
      }

      .cls-3 {
        fill: #774017;
      }

      .cls-4 {
        fill: #6d583e;
      }

      .cls-5, .cls-6 {
        fill: #f2eee7;
      }

      .cls-7 {
        fill: #c7b299;
      }

      .cls-8 {
        fill: #eae7df;
      }

      .cls-9 {
        fill: #fffdae;
      }

      .cls-10 {
        fill: gray;
      }

      .cls-11 {
        fill: #829344;
      }

      .cls-12 {
        fill: #f9c0d3;
      }

      .cls-13 {
        fill: #ef6a90;
      }

      .cls-6, .cls-14 {
        stroke-width: 1.63px;
      }

      .cls-6, .cls-14, .cls-15 {
        stroke: #000;
        stroke-miterlimit: 10;
      }

      .cls-16 {
        fill: #952;
      }

      .cls-17 {
        fill: #ccc;
      }

      .cls-18 {
        fill: #1a1a1a;
      }

      .cls-14 {
        fill: none;
      }

      .cls-15 {
        fill: #e5dcb1;
        stroke-width: .82px;
      }
    </style>
  </defs>
  <g id="jhonnalesx">
    <g>
      <path class="cls-18" d="m271.32,1041.5s26.72,236.58,224.09,229.46c148.64-5.36,260.01-140.21,238.16-287.33-2.8-18.85-7.44-38.82-14.28-59.95-6.37-19.69-24.7-33.43-45.39-33.02-14.17.28-27.12,6.9-27.6,29.93-.13,6.22,1.22,12.38,3.61,18.13,14,33.6,67.49,184.61-68,254.37,0,0-190.65,105.71-245.28-153.38-3.33-15.77-16.83-27.75-32.94-27.99-12.05-.18-24.88,6.27-32.37,29.79"/>
      <g>
        <path class="cls-5" d="m518.6,1093.77c-6.34,41.44-18.74,129.54-19.99,191.85,0,0-84.57,77.55-191.98,5.53l-.52-204.95c-.04-15.12,7.04-29.1,18.52-36.34,33.27-20.98,106.39-53.48,179.63,4.48,11.06,8.75,16.67,24.17,14.33,39.42Z"/>
        <path class="cls-5" d="m499.71,1258.77l-4.48,171.57s-91.34,43.02-188.59,0v-171.57s92.69-54.23,193.08,0Z"/>
        <path class="cls-5" d="m480,1408.83s28.5,4.49,29.95,68.55c.39,17.13-11.69,31.19-26.52,31.19h-162.04c-14.36,0-17.48-12.73-17.93-29.33-.8-29.84-5.22-71.65,24.15-70.4,45.83,1.96,152.39,0,152.39,0Z"/>
      </g>
      <g>
        <path class="cls-5" d="m90.65,1093.77c6.34,41.44,18.74,129.54,19.99,191.85,0,0,84.57,77.55,191.98,5.53l.52-204.95c.04-15.12-7.04-29.1-18.52-36.34-33.27-20.98-106.39-53.48-179.63,4.48-11.06,8.75-16.67,24.17-14.33,39.42Z"/>
        <path class="cls-5" d="m109.54,1258.77l4.48,171.57s91.34,43.02,188.59,0v-171.57s-92.69-54.23-193.08,0Z"/>
        <path class="cls-5" d="m129.25,1408.83s-28.5,4.49-29.95,68.55c-.39,17.13,11.69,31.19,26.52,31.19h162.04c14.36,0,15.16-12.73,15.61-29.33.8-29.84,7.54-71.65-21.83-70.4-45.83,1.96-152.39,0-152.39,0Z"/>
      </g>
      <g>
        <path class="cls-5" d="m129.27,456.94c-22.86,14.74-56.95,58.96-76.6,189.84-1.76,11.74-.5,23.87,3.92,34.69,8.92,21.83,29.27,48.38,70.53,7.77,7.3-7.19,12.76-16.45,15.77-26.83,10.84-37.35,37.41-137.64,25.99-187.02-4.46-19.29-24.23-28.36-39.61-18.44Z"/>
        <path class="cls-5" d="m76.1,900.83c21.34-18.79,51.55-72.42,61.27-224.8.87-13.67-1.26-27.55-6.38-39.68-10.34-24.46-32.24-53.46-69.74-3.41-6.64,8.86-11.31,19.97-13.51,32.16-7.9,43.89-26.64,161.56-11.83,217.58,5.79,21.88,25.84,30.78,40.19,18.14Z"/>
        <path class="cls-5" d="m25.01,866.66c-2.85,27.34-33.04,79.5-22.96,113.61.84,2.85,1.19,5.84,2.17,8.69.96,2.8,2.15,5.49,3.55,8.05,2.78,5.09,6.37,9.59,10.45,13.4,8.32,7.75,18.68,12.69,29.35,14.47,10.5,1.76,21.58.44,31.15-4.89,6-3.34,11.18-8.31,15.14-14.37,4.39-6.73,7.29-15.25,9.25-23.28,1.61-6.6,2.39-13.57,1.66-20.4-.72-6.82-2.82-13.48-4.81-19.93-4.88-15.79-11.39-32.08-10.84-49.15.11-3.29.62-6.43,1.22-9.63,6.09-32.15-43.26-39.98-60.55-25.77-2.66,2.18-4.4,5.55-4.79,9.23Z"/>
      </g>
      <path class="cls-5" d="m477.11,456.94c22.86,14.74,56.95,58.96,76.6,189.84,1.76,11.74.5,23.87-3.92,34.69-8.92,21.83-29.27,48.38-70.53,7.77-7.3-7.19-12.76-16.45-15.77-26.83-10.84-37.35-37.41-137.64-25.99-187.02,4.46-19.29,24.23-28.36,39.61-18.44Z"/>
      <path class="cls-5" d="m530.27,900.83c-21.34-18.79-51.55-72.42-61.27-224.8-.87-13.67,1.26-27.55,6.38-39.68,10.34-24.46,32.24-53.46,69.74-3.41,6.64,8.86,11.31,19.97,13.51,32.16,7.9,43.89,26.64,161.56,11.83,217.58-5.79,21.88-25.84,30.78-40.19,18.14Z"/>
      <path class="cls-5" d="m581.36,866.66c2.85,27.34,33.04,79.5,22.96,113.61-.84,2.85-1.19,5.84-2.17,8.69-.96,2.8-2.15,5.49-3.55,8.05-2.78,5.09-6.37,9.59-10.45,13.4-8.32,7.75-18.68,12.69-29.35,14.47-10.5,1.76-21.58.44-31.15-4.89-6-3.34-11.18-8.31-15.14-14.37-4.39-6.73-7.29-15.25-9.25-23.28-1.61-6.6-2.39-13.57-1.66-20.4.72-6.82,2.82-13.48,4.81-19.93,4.88-15.79,11.39-32.08,10.84-49.15-.11-3.29-.62-6.43-1.22-9.63-6.09-32.15,43.26-39.98,60.55-25.77,2.66,2.18,4.4,5.55,4.79,9.23Z"/>
      <g>
        <rect class="cls-5" x="221.6" y="397.44" width="162.23" height="76.63" rx="20.69" ry="20.69"/>
        <g>
          <g>
            <path class="cls-5" d="m304.88,1153.13c-37.75-.03-72.02-2.52-101.54-5.99-73.39-8.65-131.32-67.76-140.02-142.92-10.63-91.77,7.69-174.11,28.69-216.2,23.59-47.27,34.22-100.14,31.18-153.14-6.46-112.68,7.46-164.67,31.97-181.95,21.9-15.44,84.28-22.93,121.07-26.1,14.58-1.26,29.23-1.26,43.81,0,36.79,3.17,99.15,10.66,121.05,26.1,24.51,17.28,51.95,69.28,45.5,181.95-3.04,53,7.59,105.87,31.18,153.14,21.01,42.09,39.32,124.43,28.7,216.19-8.64,74.63-65.81,133.87-138.65,142.77-36.29,4.43-70.86,6.18-102.94,6.16Z"/>
            <path class="cls-8" d="m473.46,979.8c0-1.23,0-2.48-.02-3.76.02-1.63,0-3.27-.1-4.91-1.69-66.53-21.46-188.99-28.14-228.74-.92-5.5-8.9-6.38-11.2-1.25-1.96,4.36-3.63,9.42-5.01,14.31-2.18,7.73-13.74,7.92-16.22.27-10.42-32.17-8.75-88.41-6.87-118.66.4-6.43-9.23-8.19-11.4-2.08-1.61,4.51-3.02,9.49-4.24,14.53-2.16,8.92-16.03,7.92-16.64-1.21-1.7-25.27,3.74-50.38,7.32-63.65,1.25-4.62-3.87-8.46-8.36-6.28-10.97,5.32-18.46,15.54-23.45,25.59-3.56,7.17-14.78,5.54-15.99-2.29-2.91-18.96-2.32-34.57-1.1-45.13.68-5.89-7.72-8.52-10.86-3.39-5.53,9.01-9.25,21.56-11.61,32.01-1.55,6.87-11.12,8.58-15.26,2.74l-2.43-3.43c-1.57-2.21-5.24-.78-4.66,1.83,4.37,19.59,5.13,47.66,4.87,69.86-.09,7.36-9.71,10.54-14.88,5.02-4.22-4.51-8.92-7.88-13.39-10.38-4.88-2.73-10.54,2.03-8.34,6.97,8.73,19.56,7.45,50.22,4.54,73.79-.94,7.61-11.72,9.71-15.69,3.02-10.51-17.71-26.77-26.98-38.25-31.59-4.78-1.92-9.62,2.48-7.77,7.06,8.73,21.63,11.92,54.06,12.95,80.6.3,7.81-10.32,11.32-15.21,5-3.14-4.05-6.43-7.3-9.54-9.88-4.1-3.4-10.5-.05-9.61,5.03,6.4,36.78-8.65,123.8-15.99,162.23-2.06,6.08-3.25,12.16-3.6,18.17-.08.4-.13.63-.13.63.03.02.06.05.09.07-2.7,55.53,64.84,105.54,156.13,105.86,1.85,0,3.71,0,5.58,0,86-.33,150.52-45.7,154.31-97.81.12-.1.18-.16.18-.16Z"/>
            <path class="cls-18" d="m517.76,788.01c-3.72-7.46-7.08-15.06-10.15-22.78-.47.53-.91,1.08-1.41,1.59-13.12,13.61-33.88,17.19-52.01,24-18.13,6.81-36.73,21.75-33.63,39.9,2.52,14.76,18.29,23.99,33.28,28.91,14.98,4.92,31.54,7.97,42.92,18.38,20.68,18.93-1.7,93.15,50.43,119.35,8.97-89-8.94-168.31-29.42-209.35Z"/>
            <path class="cls-18" d="m207.36,868.9c-6.91-14.09-19.64-25.45-34.81-31.42-13.31-5.24-30.09-7.71-36.48-19.9-3.04-5.8-2.86-12.59-2.36-19.05,3.11-40,16.18-79.29,37.86-113.81,9.55-15.21,21.08-30.39,22.53-48,2.61-31.5-26.25-54.63-49.33-79.64-7.79-8.44-22.53-3.42-22.88,7.76-.62,20.18-.24,43.41,1.29,70.03,3.04,53-7.59,105.87-31.18,153.14-21.01,42.09-39.32,124.43-28.69,216.2,4.23,36.54,20.12,69.26,43.74,94.26,3.39-2.91,6.02-6.53,7.44-10.81,4.16-12.49-2.23-26.95,3.71-38.79,3.39-6.76,10.3-11.46,13.84-18.15,11.76-22.17-18.99-46.57-14.3-70.96,3.57-18.6,25.43-27.97,44.55-33.67,20.6-6.14,44.59-14.34,48.53-35.49,1.37-7.37-.15-14.92-3.48-21.72Z"/>
          </g>
          <path class="cls-7" d="m403.7,1146.43c-65.21,9.53-131.85,9.4-197.09.17,65.46,7.03,131.65,7.18,197.09-.17h0Z"/>
        </g>
      </g>
      <g>
        <path class="cls-13" d="m442.73,48.38s-4.04,26.14,7.65,45.43c0,0,12.15,23.99,33.84,24.34l-6.35,58.84-50.35-54.54-20.06-29.83,35.26-44.23Z"/>
        <path class="cls-18" d="m520.93,253.88c-27.69-57.39-33.78-89.98-28.05-156.69.04-3.67-.37-20.67-6.87-15.61-10.04,18.75-17.83,71.83-9.95,88.83-2.14-6.42-15.17-24.43-16.55-25.94-12.07-24.54-2.26-39.26-2.26-39.26-6.76,1.68-11.2,6.31-13.82,10.11-.57.83-1.96.34-1.82-.63,1.66-11.81-1.71-16.25-1.71-16.25-16.63,34.09-38.7-11.78-14.35-18.45,20.83-9.4,17.74-37.49,21.63-55.55.4-3.61-4.68-5.29-6.82-2.26-17.82,18.47-30.44,76.94-66.31,72.55-22.82-11.82-116.7-11.83-139.3,0C193.29,104.28,173.07-5.67,141.49.23c-22.61,6.71-27.44,67.31-26.5,78.48,5.29,75.31,5.95,108.27-26.92,174.63-21.24,56.34-20.28,47.01-.65,70.03,12.5,14.79,28.73,28.85,45.78,38.48,24.38,14.82,52.08,65.76,61.81,65.75,31.92-1.28,42.82-35.19,83.32-32.98,17.36.95,34.78.95,52.14,0,40.49-2.21,51.4,31.7,83.32,32.98,8.82.21,33.06-43.11,55.59-61.19,18.54-12.25,38.12-25.55,52.01-43.04,19.57-22.95,20.58-13.75-.45-69.49Z"/>
        <path class="cls-13" d="m124.58,202.49c.98-16.01,2.71-54.04.37-96.56-.83-15.19-.27-30.44,1.94-45.52,1.14-7.75,2.69-15.55,4.82-21.56,1.06-3,5.55-3.17,6.92-.28,5.39,11.39,16.77,33.92,29.48,49.68,1.87,2.32.61,5.67-2.43,6.36-1.04.24-2.14.45-3.22.58-3.37.42-5.57,3.45-4.76,6.52,1.8,6.81,7.27,16.11,23.73,15.42,1.3-.05,1.73,1.6.56,2.12-5.05,2.22-13.01,4.39-19.5.12,0,0,1.33,7.96,6.2,11.96,1.06.87.38,2.52-1.04,2.54-5.97.06-15.15-1.33-18.36-9.94,0,0,2.93,20.85-3.1,35.75-.81,2-3.91,1.84-4.5-.22-1.55-5.44-3.99-12.99-5.98-14.85,0,0,2.73,28.36-8.55,58.36-.51,1.35-2.67.94-2.58-.48Z"/>
      </g>
      <path class="cls-5" d="m333.45,181.37c-.45-1.47-.53-3.04-.23-4.55s.95-2.94,1.86-4.18c.95-1.3,2.16-2.4,3.54-3.23,1.83-1.11,3.81-1.72,5.95-1.78.3,0,.59-.02.89-.03.86-.04,1.71-.07,2.57-.11l3.29-.14c1.24-.05,2.48-.1,3.72-.15s2.58-.11,3.87-.16c1.25-.05,2.49-.1,3.74-.15,1.11-.05,2.22-.09,3.33-.14.88-.04,1.75-.07,2.63-.11.55-.02,1.1-.05,1.65-.07l.43-.02,21.55-.35c3.59-.5,4.92,3.86,1.67,5.45-10.86,3.63-33.54,11.54-44.43,15.41-6.46,3.17-14.13.44-16.02-5.7Z"/>
      <path class="cls-5" d="m274.69,181.54c.45-1.47.53-3.04.23-4.55-.3-1.51-.95-2.94-1.86-4.18-.95-1.3-2.16-2.4-3.54-3.23-1.83-1.11-3.81-1.72-5.95-1.78-.3,0-.59-.02-.89-.03-.86-.04-1.71-.07-2.57-.11-1.1-.05-2.19-.09-3.29-.14-1.24-.05-2.48-.1-3.72-.15-1.29-.05-2.58-.11-3.87-.16l-3.74-.15c-1.11-.05-2.22-.09-3.33-.14-.88-.04-1.75-.07-2.63-.11-.55-.02-1.1-.05-1.65-.07l-.43-.02-21.55-.35c-3.59-.5-4.92,3.86-1.67,5.45,10.86,3.63,33.54,11.54,44.43,15.41,6.46,3.17,14.13.44,16.02-5.7Z"/>
      <g>
        <path class="cls-2" d="m201.86,212.02h44.47c15.89,0,28.78,12.9,28.78,28.78v44.47h-25.56c-26.32,0-47.7-21.37-47.7-47.7v-25.56h0Z" transform="translate(476.97 497.29) rotate(-180)"/>
        <path d="m234.05,212.49c-12.65,2.66-22.29,16.5-22.29,33.19,0,18.59,11.96,33.66,26.72,33.66s26.72-15.07,26.72-33.66c0-8.36-2.43-16-6.43-21.89-6.81-5.95-15.33-9.99-24.72-11.3Z"/>
      </g>
      <g>
        <path class="cls-11" d="m452.1,451.72l-35.85-9.3c-1.86-.48-3.68.86-3.66,2.72.24,26.13,3.13,185.24,37.48,270.97,5.86,14.63,18.17,26,33.49,31.27l16.4,5.64s-31-136.21-43.09-295.72c-.2-2.65-2.11-4.89-4.77-5.58Z"/>
        <path class="cls-11" d="m144.14,450.09l35.85-9.3c1.86-.48,3.68.86,3.66,2.72-.24,26.13-11.62,181.36-28.19,271.86-2.55,13.94-15.12,24.07-30.45,29.35l-13.53,1.63s15.8-131.16,27.88-290.68c.2-2.65,2.11-4.89,4.77-5.58Z"/>
      </g>
      <g>
        <g>
          <path class="cls-12" d="m445.48,175.32c-2.44,1.39-4.73,3.28-7.36,4.05-2.92.86-4,3.33-5.94,5.03-.24.21-.25.82-.49.9-3.86,1.27-5.54,5.1-8.63,7.27-1.72,1.21-3.13,2.33-5.66,1.84-3.48-.67-7.39,2.35-8.82,5.78-.67,1.61-1.52,3.2-2.57,4.58-.56.74-1.75.99-2.58,1.57-1.38.98-2.86,1.89-3.99,3.11-2.02,2.18-4.28,3.78-7.11,4.78-1.82.64-3.42,1.9-5.11,2.9-.18.1-.41.33-.4.49.1,2.45-2,3.34-3.32,4.79-1.18,1.28-2.65,1.45-4.22,1.94-2.07.64-5.44.73-6.11,2.31-1.18,2.8-2.96,4.48-5.2,6.23-1.97,1.54-3.26,3.93-5.19,5.54-1,.83-2.72,1.03-4.13,1.07-2.18.07-3.48,1.08-3.93,3.05-.36,1.55-1.27,2.18-2.63,2.81-2.73,1.25-4.63,3.23-5.16,6.47-.16.95-1.63,1.93-2.71,2.43-5.18,2.36-8.75,6.2-11.15,11.3-.53,1.12-1.34,2.33-2.35,2.97-2.35,1.49-3.05,4.19-4.87,6.01-1.21,1.21-2.55,2.3-3.77,3.51-.55.55-1.05,1.21-1.37,1.92-2.07,4.51-4.86,8.49-8.68,11.78.09-.24.1-.57.27-.7,3.45-2.63,4.2-6.62,5.26-10.45.06-.21,0-.57.11-.62,2.86-1.29,2.55-4.61,4.25-6.62,1.54-1.82,3.05-3.65,4.62-5.44.25-.28.77-.35,1.18-.46,2.34-.66,3.78-2.5,3.84-5.01.04-1.66.63-2.79,2.18-3.7,1.01-.59,2.01-1.9,2.22-3.03.64-3.5,2.42-6.01,5.5-7.67.26-.14.58-.2.78-.39,1.86-1.85,3.75-3.68,5.52-5.61.39-.42.2-1.32.52-1.85,1.26-2.07,2.43-4.32,5.21-4.7,1.36-.19,1.96-.93,2.25-2.26.63-2.88,2.87-4.44,5.07-6.12,1.24-.95,2.31-2.33,2.98-3.74.88-1.87,1.98-2.64,4.05-2.3,2.27.37,3.22-1.5,4.27-2.98.97-1.39,1.57-3.09,2.7-4.3.67-.71,2.08-.69,3.14-1.05.63-.22,1.64-.42,1.78-.85,1.21-3.81,4.79-4.38,7.69-5.88.56-.29,1.19-.53,1.65-.95,1.05-.97,1.98-1.76,3.67-1.33.62.16,1.98-.86,2.31-1.64,1.43-3.39,5.47-6.14,9.17-6.12.79,0,1.65-.6,2.35-1.09,1.05-.74,1.89-1.85,3.01-2.41,2.59-1.28,4.71-3.23,7.96-3.62,2.75-.32,5.45-2.22,7.87-3.86,2.46-1.67,4.87-3.12,7.63-4.37,3.64-1.64,7.14-3.7,10.93-5.11.26-.1.46-.36.69-.54.27.11.54.23.81.34Z"/>
          <path class="cls-12" d="m381.99,242.45c-.72-.82-1.23-1.4-1.42-1.62.76-1.51,1.25-2.73,1.97-3.8.43-.63,1.42-1.55,1.82-1.41,2.31.83,3.82-.95,5.65-1.52,3.9-1.22,6.15-4.14,7.38-7.92.68-2.07,3.5-4.2,5.6-3.86,1.83.3,3.05-.36,4.2-1.58,1.25-1.33,2.37-2.9,3.87-3.85,2.85-1.81,6.24-2.87,8.83-4.96,3.34-2.7,7.82-3.26,10.82-6.74,1.72-2,4.86-2.78,7.38-4.09.38-.2,1.01-.16,1.21-.45,2.16-3.17,6.45-2.54,8.96-5.07.05-.05.25.06.63.15-.5.63-.82,1.36-1.38,1.7-2.36,1.43-4.82,2.68-7.17,4.11-1.32.8-3.38.99-3.07,3.44.03.26-1.63.74-2.51,1.12-.64.28-1.72.43-1.86.87-1.44,4.47-4.61,6.82-8.99,8.01-.79.21-1.88,1.33-1.9,2.05-.08,2.91-2.6,3.85-4.12,5.55-.85.95-2.03,1.61-3.06,2.39-.17.13-.38.37-.54.35-4.34-.81-4.63,2.75-5.85,5.35-.75,1.59-1.46,3.23-2.45,4.67-.7,1.02-1.86,1.73-2.79,2.61-1.08,1.01-1.97,2.46-3.25,2.97-1.25.5-2.96-.23-4.31.14-1.14.31-2.04,1.46-3.09,2.18-1.15.79-2.31,1.56-3.53,2.23-.93.51-1.92.6-1.58,2.27.49,2.39-1.11,4.47-3.42,5.34-1.46.56-2.87,1.24-4.32,1.88.19,1.66-2.07,4.55-4.55,4.8-3.66.36-5.45,2.76-7.27,5.35-.29.42-.6.83-.98,1.36-1.49-.81-2.43-.34-3.42,1.14-1.29,1.94-3.01,3.6-4.62,5.31-.27.29-.94.16-1.39.32-.71.26-1.65.42-2.05.96-1.27,1.67-2.33,3.49-3.47,5.25-.08.12-.15.29-.26.34-3.46,1.62-5.23,4.95-7.71,7.57-.36.38-1.04.43-1.51.73-.7.46-1.45.91-1.99,1.52-1.55,1.77-2.99,3.62-4.49,5.44-.46.55-.97,1.06-1.41,1.63-1.21,1.58-2.39,3.18-3.58,4.78-.2-.16-.41-.31-.61-.47,1.7-2.28,3.48-4.5,5.07-6.86,1.37-2.03,2.27-4.41,3.81-6.27,1.5-1.81,3.56-3.15,5.37-4.7,1.05-.9,1.89-1.69,2.48-3.23,1.01-2.61,1.76-5.61,4.98-7.13,1.99-.94,3.37-3.19,5-4.88.6-.62,1-1.55,1.71-1.92,2.22-1.18,2.59-3.57,3.87-5.34,1.05-1.46,2.68-2.5,3.99-3.79,1.4-1.38,2.73-2.82,4.07-4.25.3-.32.57-1.02.78-.99,3.34.43,3.42-2.25,4.28-4.28.35-.82.95-1.65,1.65-2.16,1.39-1.01,2.95-1.81,4.54-2.75Z"/>
        </g>
        <path class="cls-12" d="m446.73,219.19c-1.59.99-3.23,1.92-4.75,3.01-.67.48-1.06,1.33-1.63,1.96-.37.41-.79.8-1.26,1.08-1.06.62-2.31.98-2.3,2.61,0,.26-.99.81-1.45.75-2.33-.32-3.48.81-4.26,2.86-.31.81-1.21,1.77-2.01,1.95-3.03.68-3.89,3.27-5.29,5.43-.49.75-.83,1.9-1.51,2.18-2.34.96-3.06,3.1-4.13,5.01-.14.25-.25.77-.35.77-3-.11-3.46,3.98-6.47,3.88-1.69-.06-1.78,1.24-1.78,2.45,0,3.51-.7,4.63-3.87,5.41-1.46.36-2.99.38-4.5.55-.22.02-.55-.07-.64.05-.78.99-1.69,1.94-2.22,3.06-.51,1.08-2.02.56-2.41,2.37-.4,1.86-2.41,3.84-4.23,4.81-2.04,1.09-4.44,1.35-4.97,4.16-.05.25-.35.63-.55.64-3.97.17-3.78,4.35-6.01,6.17-.81.66-1.7,1.23-2.63,1.7-1.16.58-2.11,1.07-1.18,2.63.19.32-.16,1.29-.54,1.55-1.61,1.09-3.51,1.8-4.95,3.06-1.43,1.25-2.44,2.98-3.98,4.3.2-.48.32-1.03.63-1.43,2.65-3.46,4.93-7.36,8.14-10.2,2.72-2.4,4.27-5.18,5.85-8.21.8-1.52,2.34-2.64,3.47-4,2.23-2.69,4.41-5.42,6.59-8.15.21-.26.31-.69.3-1.04-.04-2.6,2.3-3.45,3.63-5.03,1.24-1.48,2.41-3.02,3.63-4.52.68-.83,1.33-1.7,2.1-2.44.62-.58,1.55-.87,2.11-1.49.86-.98,1.63-1.4,3.03-1.01,1.27.35,2.44,0,3.19-1.54.59-1.22,1.13-2.96,3.17-2.76.22.02.55-.24.71-.46,2.23-3.2,5.54-4.86,8.81-6.77,2.74-1.6,4.96-4.08,7.47-6.09.64-.51,1.52-.71,2.25-1.13,2.54-1.47,5.1-2.93,7.59-4.49,2.27-1.42,4.46-2.96,6.68-4.45.18.28.36.56.54.84Z"/>
      </g>
      <g>
        <path class="cls-2" d="m381.15,212.02h25.56v44.47c0,15.89-12.9,28.78-28.78,28.78h-44.47v-25.56c0-26.32,21.37-47.7,47.7-47.7Z"/>
        <path class="cls-9" d="m374.52,212.49c-9.4,1.31-17.91,5.35-24.72,11.3-4.01,5.89-6.43,13.53-6.43,21.89,0,18.59,11.96,33.66,26.72,33.66s26.72-15.07,26.72-33.66c0-16.69-9.64-30.53-22.29-33.19Z"/>
      </g>
      <g>
        <path class="cls-6" d="m391.44,310.88c-21.38-7.56-44.19-16.32-62.71-29.49-3.34-2.76-7.1-4.8-11.09-6.1l-1.8-3.69,8.47-45.5c.43-2.09-2.27-3.31-3.57-1.61l-7.95,10.48,2.65-37.18c.47-6.57-7.85-9.72-11.89-4.52-8.51,10.96-18.45,31.68-20.68,69.7-.3,5.2.06,10.4,1.06,15.5-15.92,7.35-30.08,21.01-47.63,25.06-15.05,5.3-34.35,10.39-37.34,29.6-3.67,9.71-5.8,41.82,8.8,51.24,25.46,23.33,65.32,68.15,108.27,58.23,32.04-3.5,64.33-41.36,84.1-58.22,19.96-19.17,14.16-63.15-8.7-73.47Z"/>
        <path class="cls-13" d="m313.55,295.04c-5.94-2.42-12.61-2.42-18.54,0-1.79.73-3.71,1.69-5.62,2.96-2.31,1.53-3.69,4.14-3.69,6.91-.06,2.84-.36,6.61,2.35,8.42,4.06,3.42,5.81-5.33,10.73-2.11,1.73.63,3.09,4.21,4.16,7.25.45,1.27,2.24,1.27,2.68,0,1.07-3.04,2.43-6.62,4.16-7.25,4.92-3.21,6.66,5.53,10.73,2.11,2.71-1.81,2.41-5.58,2.35-8.42,0-2.78-1.38-5.38-3.69-6.91-1.91-1.27-3.82-2.23-5.61-2.96Z"/>
        <path class="cls-15" d="m283.26,362.01c-5.51-.21-10.81-2.07-15.42-5.09-1.68-1.1-5.02-3.22-6.78-2.13-.21.13-.26.41-.16.63,2.91,6.5,8.57,15.62,16.52,20.19,1.03.59,2.35.35,3.11-.57,1.79-2.15,5.17-6.55,8.38-12.54.21-.39-.13-.85-.57-.78-1.54.25-3.23.36-5.08.29Z"/>
        <g>
          <line class="cls-14" x1="304.28" y1="345.22" x2="304.28" y2="329.96"/>
          <path class="cls-14" d="m223.17,361.18c17.99-11.02,37.66-8.84,44.67-4.26,4.61,3.02,9.92,4.88,15.42,5.09,18.85.71,21.03-16.79,21.03-16.79,0,0,2.18,17.5,21.03,16.79,5.51-.21,10.81-2.07,15.42-5.09,7-4.58,27.6-5.13,44.67,4.26"/>
        </g>
      </g>
      <g>
        <g>
          <g>
            <path class="cls-10" d="m189.23,1233.37s-2.4-16.63-17.41-22.83c-3.06-1.26-6.51.63-7.08,3.88l-6.12,34.43c-.62,3.48,2.4,6.54,5.88,5.91,9.03-1.63,23.62-6.55,24.74-21.41Zm-21.39,14.88c-2.45.44-4.58-1.72-4.14-4.17l4.32-24.27c.41-2.29,2.84-3.63,4.99-2.74,10.58,4.37,12.27,16.09,12.27,16.09-.79,10.47-11.07,13.94-17.43,15.09Z"/>
            <rect class="cls-10" x="187.14" y="1223.96" width="8.4" height="21" rx="2.21" ry="2.21" transform="translate(1440.23 1262.2) rotate(100.08)"/>
          </g>
          <path class="cls-1" d="m300.67,1262.37l-97.19-10.36c-4.58-.46-7.94-4.59-7.48-9.16l1.27-12.55c.46-4.58,4.59-7.94,9.16-7.48l90.68,9.18c4.58.46,7.28,1.35,6.82,5.93l.86,14.7c.14,2.31.14,4.63-.17,6.92-.27,2.04-1.01,3.14-3.96,2.84Z"/>
        </g>
        <g>
          <g>
            <path class="cls-10" d="m182.39,1005.59s-22.13-11.14-42.29,1.78c-4.1,2.63-4.73,8.4-1.28,11.85l36.47,36.47c3.68,3.68,9.94,2.62,12.11-2.11,5.65-12.29,12.02-34.09-5-47.98Zm-.06,38.42c-1.53,3.34-5.94,4.09-8.54,1.49l-25.7-25.7c-2.43-2.43-1.99-6.49.9-8.35,14.21-9.1,29.8-1.26,29.8-1.26,11.99,9.79,7.51,25.15,3.53,33.81Z"/>
            <rect class="cls-10" x="179.29" y="988.47" width="12.39" height="30.97" rx="3.26" ry="3.26" transform="translate(764.23 162.89) rotate(45)"/>
          </g>
          <path class="cls-1" d="m189.31,989.67l9.6,10.86c1.81,2.05,4.7,2.77,7.25,1.8,31.79-12.07,236.17-87.45,338.56-86.73,2.9.02,5.13-2.33,4.97-5.23-.37-6.61-1.12-17.65-2.27-24.31-.41-2.36-2.64-3.95-5-3.53-40.85,7.26-254.29,45.94-351.24,96.96-3.78,1.99-4.69,6.98-1.87,10.18Z"/>
        </g>
        <g>
          <path class="cls-1" d="m176.51,1052.54c3.2-5.17,2.32-11.88-1.97-16.18l-17.18-17.18c-3.58-3.58-8.99-4.63-13.71-2.6l-.25.11c-12.02,5.15-24.85,8.32-37.91,8.91-29.92,1.36-36.15-9.73-37.4-15.37-.58-2.61-2.75-4.71-5.43-4.63-6.25.18-4.14,10.75-4.14,10.75l19.48,206.36c.85,8.97,5.84,17.3,14.06,22.26,6.03,3.64,13.27,4.69,20.22,3.58l38.77-6.2c1.01-.16,8.77-.39,11.41.52,2.81.97,5.9-.26,7.23-2.92l2.59-11.69c1.09-2.18.72-4.78-.91-6.6-.53-.58-1.08-1.34-1.65-2.31-1.54-2.64-2.6-20.76-2.73-23.81l-3.17-101.77c0-17.42,7.26-32.42,12.7-41.22Z"/>
          <path class="cls-3" d="m49.23,1174.27l1.09-37.16,1.72-58.34c.16-5.45,4.63-9.79,10.09-9.79h62.03c12.9,0,23.36,10.46,23.36,23.36v110.81c0,9.93-8.05,17.97-17.97,17.97h-58.63s-21.68-9.69-21.68-46.85Z"/>
          <g>
            <path class="cls-4" d="m85.42,1060.45l12.27,3.24,7.98-63.66s1.15-17.93-8.91-20.52c0,0-6.08-1.94-10.54,9.72-.64,1.66-.3,3.74.79,4.95,1.51,1.68,3.3,4.41,2.64,7.47,0,0-.59,5.39-2.09,13.49,0,0-2.48,15.99-1.78,28.52.23,4.05.27,8.11.03,12.14-.13,2.09-.27,3.97-.39,4.66Z"/>
            <path class="cls-17" d="m85.78,1060.27l11.55,3.58-9.46,88s-4.57,40.8-9.92,60.39c0,0-4.96-3.31-10.3-30.87,0,0-6.11-32.45-3.98-59.41.27-3.45.54-6.9.7-10.36l1.8-37.56c.08-1.63.96-2.94,2.13-3.18l10.74-2.14c1.94-.39,3.76-1.62,5.04-3.65.76-1.21,1.43-2.78,1.7-4.81Z"/>
          </g>
          <path class="cls-16" d="m36.84,1170.03l.93-30.37,1.46-47.69c.14-4.46,3.94-8.01,8.58-8.01h52.77c10.97,0,19.87,8.55,19.87,19.1v90.59c0,6.35-20.26,18.89-33.11,24.05-4.38,1.76-9.19,2.12-13.8,1.09l-9.28-2.06s-27.42-16.31-27.42-46.69Z"/>
        </g>
      </g>
      <g>
        <g>
          <g>
            <path class="cls-10" d="m189.23,1233.37s-2.4-16.63-17.41-22.83c-3.06-1.26-6.51.63-7.08,3.88l-6.12,34.43c-.62,3.48,2.4,6.54,5.88,5.91,9.03-1.63,23.62-6.55,24.74-21.41Zm-21.39,14.88c-2.45.44-4.58-1.72-4.14-4.17l4.32-24.27c.41-2.29,2.84-3.63,4.99-2.74,10.58,4.37,12.27,16.09,12.27,16.09-.79,10.47-11.07,13.94-17.43,15.09Z"/>
            <rect class="cls-10" x="187.14" y="1223.96" width="8.4" height="21" rx="2.21" ry="2.21" transform="translate(1440.23 1262.2) rotate(100.08)"/>
          </g>
          <path class="cls-1" d="m300.67,1262.37l-97.19-10.36c-4.58-.46-7.94-4.59-7.48-9.16l1.27-12.55c.46-4.58,4.59-7.94,9.16-7.48l90.68,9.18c4.58.46,7.28,1.35,6.82,5.93l.86,14.7c.14,2.31.14,4.63-.17,6.92-.27,2.04-1.01,3.14-3.96,2.84Z"/>
        </g>
        <g>
          <g>
            <path class="cls-10" d="m182.39,1005.59s-22.13-11.14-42.29,1.78c-4.1,2.63-4.73,8.4-1.28,11.85l36.47,36.47c3.68,3.68,9.94,2.62,12.11-2.11,5.65-12.29,12.02-34.09-5-47.98Zm-.06,38.42c-1.53,3.34-5.94,4.09-8.54,1.49l-25.7-25.7c-2.43-2.43-1.99-6.49.9-8.35,14.21-9.1,29.8-1.26,29.8-1.26,11.99,9.79,7.51,25.15,3.53,33.81Z"/>
            <rect class="cls-10" x="179.29" y="988.47" width="12.39" height="30.97" rx="3.26" ry="3.26" transform="translate(764.23 162.89) rotate(45)"/>
          </g>
          <path class="cls-1" d="m189.31,989.67l9.6,10.86c1.81,2.05,4.7,2.77,7.25,1.8,31.79-12.07,236.17-87.45,338.56-86.73,2.9.02,5.13-2.33,4.97-5.23-.37-6.61-1.12-17.65-2.27-24.31-.41-2.36-2.64-3.95-5-3.53-40.85,7.26-254.29,45.94-351.24,96.96-3.78,1.99-4.69,6.98-1.87,10.18Z"/>
        </g>
        <g>
          <path class="cls-1" d="m176.51,1052.54c3.2-5.17,2.32-11.88-1.97-16.18l-17.18-17.18c-3.58-3.58-8.99-4.63-13.71-2.6l-.25.11c-12.02,5.15-24.85,8.32-37.91,8.91-29.92,1.36-36.15-9.73-37.4-15.37-.58-2.61-2.75-4.71-5.43-4.63-6.25.18-4.14,10.75-4.14,10.75l19.48,206.36c.85,8.97,5.84,17.3,14.06,22.26,6.03,3.64,13.27,4.69,20.22,3.58l38.77-6.2c1.01-.16,8.77-.39,11.41.52,2.81.97,5.9-.26,7.23-2.92l2.59-11.69c1.09-2.18.72-4.78-.91-6.6-.53-.58-1.08-1.34-1.65-2.31-1.54-2.64-2.6-20.76-2.73-23.81l-3.17-101.77c0-17.42,7.26-32.42,12.7-41.22Z"/>
          <path class="cls-3" d="m49.23,1174.27l1.09-37.16,1.72-58.34c.16-5.45,4.63-9.79,10.09-9.79h62.03c12.9,0,23.36,10.46,23.36,23.36v110.81c0,9.93-8.05,17.97-17.97,17.97h-58.63s-21.68-9.69-21.68-46.85Z"/>
          <g>
            <path class="cls-4" d="m85.42,1060.45l12.27,3.24,7.98-63.66s1.15-17.93-8.91-20.52c0,0-6.08-1.94-10.54,9.72-.64,1.66-.3,3.74.79,4.95,1.51,1.68,3.3,4.41,2.64,7.47,0,0-.59,5.39-2.09,13.49,0,0-2.48,15.99-1.78,28.52.23,4.05.27,8.11.03,12.14-.13,2.09-.27,3.97-.39,4.66Z"/>
            <path class="cls-17" d="m85.78,1060.27l11.55,3.58-9.46,88s-4.57,40.8-9.92,60.39c0,0-4.96-3.31-10.3-30.87,0,0-6.11-32.45-3.98-59.41.27-3.45.54-6.9.7-10.36l1.8-37.56c.08-1.63.96-2.94,2.13-3.18l10.74-2.14c1.94-.39,3.76-1.62,5.04-3.65.76-1.21,1.43-2.78,1.7-4.81Z"/>
          </g>
          <path class="cls-16" d="m36.84,1170.03l.93-30.37,1.46-47.69c.14-4.46,3.94-8.01,8.58-8.01h52.77c10.97,0,19.87,8.55,19.87,19.1v90.59c0,6.35-20.26,18.89-33.11,24.05-4.38,1.76-9.19,2.12-13.8,1.09l-9.28-2.06s-27.42-16.31-27.42-46.69Z"/>
        </g>
      </g>
    </g>
  </g>
</svg>