<svg xmlns="http://www.w3.org/2000/svg" viewBox="0 0 378.2 924.51"><defs><style>.cls-1{fill:#eae7df;}.cls-14,.cls-2{fill:#f2eee7;}.cls-3{fill:#829344;}.cls-4{fill:#6f7f2d;}.cls-5{fill:#1a1a1a;}.cls-6{fill:#998675;}.cls-7{fill:#717f37;}.cls-8{fill:#d35b83;}.cls-9{fill:#ef6a90;}.cls-10{fill:#e8e85b;}.cls-11{fill:#f9c0d3;}.cls-12{fill:#ddda52;}.cls-13{fill:#f2eea5;}.cls-14,.cls-15,.cls-16,.cls-17{stroke:#000;stroke-miterlimit:10;}.cls-15{fill:#e5dcb1;stroke-width:0.5px;}.cls-16,.cls-17{fill:none;}.cls-17{stroke-width:1.08px;}.cls-18{fill:gray;}.cls-19{fill:#5e3819;}.cls-20{fill:#774017;}.cls-21{fill:#6d583e;}.cls-22{fill:#ccc;}.cls-23{fill:#952;}</style></defs><g id="Capa_2" data-name="Capa 2"><g id="_3_4_FRONTAL_2" data-name="3/4 FRONTAL 2"><path class="cls-1" d="M279.2,861.51s26.33,3,38.4,41.87c3.14,10.11-7.72,21.13-18.17,21.13h-128c-10.13,0-14.05-6.82-14.36-17-.57-18.3-7.23-48.77,13.48-48C202.87,860.71,279.2,861.51,279.2,861.51Z"/><path class="cls-1" d="M157.43,800.51l3.07,68,141.76,6.69s5.58-80.65,12.17-98.65C314.43,776.51,224.37,766.51,157.43,800.51Z"/><path class="cls-1" d="M147,648.63c3,10.69,15.44,109.32,15.45,110.88l-4.78,41c-.23,1.73,17.1,4.94,101.78-12,.84-.17,54.49-11.37,55-12,5.71-7.12,20-83,32-138,.4-1.84-22.95-43.53-24-45-13.66-19.21-56.29-24.64-174.08,51.71A3.06,3.06,0,0,0,147,648.63Z"/><path class="cls-2" d="M196.2,863.51s26.33,3,38.4,41.87c3.14,10.11-8.25,19.13-18.7,19.13H87.43c-10.13,0-13.05-4.82-13.36-15-.57-18.3-7.23-48.77,13.48-48C119.87,862.71,196.2,863.51,196.2,863.51Z"/><path class="cls-2" d="M73.43,801.51l3.07,68,141.76,6.69s5.58-80.65,12.17-98.65C230.43,777.51,140.37,767.51,73.43,801.51Z"/><path class="cls-2" d="M63,649.63c3,10.69,15.44,109.32,15.45,110.88l-4.78,41c-.23,1.73,17.1,4.94,101.78-12,.84-.17,54.49-11.37,55-12,5.71-7.12,17.09-55.22,51-76,1.6-1-22.95-43.53-24-45-13.66-19.21-75.29-86.64-193.08-10.29A3.06,3.06,0,0,0,63,649.63Z"/><path class="cls-3" d="M115.92,299.2l-48-10a16.06,16.06,0,0,0-14.6,4.34l-7.54,7.48a22.68,22.68,0,0,0-6.55,13.4l-4.14,34.4L21.64,426.72l-6.49,6.44a27,27,0,0,0-6.57,10.55L5.75,452.1a34.64,34.64,0,0,0-1.61,7.48l-4,40.32a33,33,0,0,0,26.33,35.58c11.87,2.41,26.35,3.08,41.41-1.59l25.28-9.78,14.55-81.17L141,333.31Z"/><path class="cls-4" d="M26.49,535.48C10.17,530.92-1.5,516.76.16,499.9l4-40.32a34.64,34.64,0,0,1,1.61-7.48l2.83-8.39a27,27,0,0,1,6.57-10.55l6.49-6.44L37,428.89A11.52,11.52,0,0,1,46.77,442C42.7,469.53,32.12,537.05,26.49,535.48Z"/><path class="cls-4" d="M137.61,328.39l-21.33-28.46a2.69,2.69,0,0,0-1.6-1L67.33,289a16.19,16.19,0,0,0-14.66,4.23l-7.54,7.38a22.16,22.16,0,0,0-6.52,13.26L28,378.37a2.69,2.69,0,0,0,2.66,3.14h0a2.7,2.7,0,0,0,2.5-1.69l20.58-50.51a2.71,2.71,0,0,1,2.68-1.68l78.9,5.07A2.7,2.7,0,0,0,137.61,328.39Z"/><path class="cls-1" d="M298.53,280c16.22,9.21,39.88,36.17,50.14,116.78a35.66,35.66,0,0,1-4,21.4c-7.23,13.48-28.3,38-57.26,13.13-5.13-4.41-16.13-20.45-18-26.83-6.76-23-28.84-91.56-20-122.49C253.43,268,279.43,269.15,298.53,280Z"/><path class="cls-1" d="M323.44,553.44c-15.05-11.51-35.5-44.48-37.79-138.37a48.37,48.37,0,0,1,5.93-24.48c8.36-15.1,25.33-33,51.23-2.31a40.68,40.68,0,0,1,8.88,19.78c4.4,27,14.42,99.51,1.78,134.08C348.54,555.65,333.56,561.19,323.44,553.44Z"/><path class="cls-1" d="M359.11,525.76c2.31,17.48,24.8,49.18,17.71,71.89-.59,1.9-.82,3.86-1.51,5.76a35.27,35.27,0,0,1-2.53,5.44,39.62,39.62,0,0,1-7.53,9.35,48,48,0,0,1-21.33,11.31c-7.66,1.84-15.76,1.73-22.8-1.08a27.43,27.43,0,0,1-11.19-8.28c-3.26-4.06-5.45-9.36-6.95-14.43a33.76,33.76,0,0,1-1.38-13.07c.47-4.46,1.95-8.91,3.35-13.21C308.38,568.91,313,558,312.47,547a35.06,35.06,0,0,0-1-6.14c-4.71-20.37,31.28-28.72,44-20.7A7.87,7.87,0,0,1,359.11,525.76Z"/><rect class="cls-2" x="156.99" y="241.68" width="87.24" height="47" rx="11.88"/><path class="cls-2" d="M197.43,708.33a481.3,481.3,0,0,1-59-3.68c-42.64-5.3-76.67-30.63-81.32-88.14-4.33-53.63,12.86-97.88,23-129,10-30.71,13.47-64.54,11.7-97.05-3.75-69.11,18.3-100.35,32.54-110.95,12.73-9.48,35-14.72,56.38-16.66a140.48,140.48,0,0,1,25.45,0c21.38,1.94,61.57,2.23,70.33,16,13.77,21.65,23,43.65,26.67,111.65,1.76,32.5,24.46,55.88,38.16,84.88C353.6,501.2,364.24,551.7,358.07,608c-5,45.77-58.52,91.11-100.84,96.56A465.65,465.65,0,0,1,197.43,708.33Z"/><path class="cls-1" d="M355.9,590c0-.75,0-1.52,0-2.3,0-1,0-2-.06-3-1.06-40.8-13.52-115.91-17.73-140.29-.58-3.37-5.61-3.91-7.06-.77a65,65,0,0,0-3.16,8.78c-1.37,4.74-8.66,4.85-10.22.16-6.57-19.73-5.52-54.23-4.34-72.78.26-3.94-5.81-5-7.18-1.27a86.32,86.32,0,0,0-2.67,8.91c-1.37,5.46-10.11,4.85-10.5-.75-1.07-15.5,2.36-30.9,4.62-39,.78-2.83-2.44-5.19-5.28-3.85-6.91,3.26-23.63,8.53-26.78,14.69-2.24,4.4-9.32,3.4-10.07-1.4a101.52,101.52,0,0,1-.7-27.68c.43-3.61-4.86-5.23-6.84-2.08-3.49,5.52-5.84,13.22-7.32,19.63-1,4.22-7,5.27-9.62,1.68l-1.53-2.1c-1-1.36-3.31-.48-2.94,1.12,2.76,12,3.24,29.23,3.07,42.85,0,4.51-6.12,6.46-9.37,3.08a35.09,35.09,0,0,0-8.44-6.37c-3.08-1.68-6.65,1.25-5.26,4.28,5.51,12,4.7,30.8,2.87,45.26-.6,4.66-7.39,5.95-9.89,1.85-6.63-10.86-16.88-16.55-24.11-19.37-3-1.18-6.07,1.52-4.9,4.33,5.5,13.26,7.51,33.15,8.16,49.43.19,4.79-6.5,6.94-9.59,3.07a39.18,39.18,0,0,0-6-6.06c-2.58-2.08-6.62,0-6.06,3.09,4,22.56-5.46,75.93-10.08,99.5a41.28,41.28,0,0,0-2.27,11.14l-.08.39.05,0c-1.69,34.07,40.87,64.74,98.41,64.94h3.52c54.21-.2,106.88-27,109.26-59Z"/><path class="cls-5" d="M334,483.11c-10.53,4.18-21.34,13.34-19.53,24.47,1.46,9.06,10.62,14.72,19.33,17.73s10.8,7.81,17.42,14.2c8.62,8.33,1.58,34.17,8.12,54,2.93-47.8-5.77-90-16.19-114.36C341.15,480.35,338.72,481.22,334,483.11Z"/><path class="cls-6" d="M322.93,672c-16.33,18.34-55.45,33.63-79.85,34.91-17.67,1.54-35.44,1.51-53.15,1.09,17.72-.31,35.42-.44,53.07-2.06,24.22-1.33,63.17-16.22,79.93-33.94Z"/><path class="cls-5" d="M145.05,571.81c12.34-3.81,26.71-8.89,29.07-22A22.36,22.36,0,0,0,172,536.32a39.79,39.79,0,0,0-20.84-19.49c-8-3.25-18-4.78-21.85-12.35-1.82-3.6-1.72-7.81-1.42-11.81a160,160,0,0,1,22.68-70.61c5.72-9.44,12.63-18.85,13.5-29.78,1.56-19.55-20.3-44.57-37.44-55.72-9.44-6.14-22-5.15-31.46-1.87-3,15-4.55,33.4-3.34,55.77,1.77,32.51-1.65,66.34-11.7,97.05-10.19,31.12-27.38,75.37-23,129,3,37.33,18.42,61.09,40.52,74.63,9.62-5.86,18.22-17.34,18.79-19.09,2.49-7.75-1.34-16.72,2.22-24.06,2-4.19,6.17-7.12,8.29-11.26,7-13.76-11.37-28.89-8.57-44C120.5,581.17,133.6,575.35,145.05,571.81Z"/><path class="cls-3" d="M129.58,274.75a65.43,65.43,0,0,1,9.87-4.29c2.24-.71,3.85.94,5.6,2.5,16.38,14.55,28.28,72.4,9.09,155.61a29.37,29.37,0,0,1-10.86,16.95,32.33,32.33,0,0,1-9.85,5l-5.29-77.79,5.29-59.21L127.08,280A4.84,4.84,0,0,1,129.58,274.75Z"/><path class="cls-7" d="M263.43,271.51a459.14,459.14,0,0,1,32.41,115,79.66,79.66,0,0,0,6.61,22.94c7.41,15.86,16.38,22.45,16.38,22.45-9.73-15.16-14.35-48.21-15.95-62.49-.37-3.27-.65-6.54-.77-9.82-1.93-51-24.6-82.19-28.69-87.43a2.83,2.83,0,0,0-1.61-1,36.25,36.25,0,0,0-5.26-.81c-1.16-.07-3.12.21-3.12,1.21Z"/><path class="cls-8" d="M303.08,36.51s3.35,46,20.35,30l-4,13h0l-2.19-.68a32.64,32.64,0,0,1-22.81-34.32h0l8.65-8"/><path class="cls-5" d="M319.43,77.51c1.48-17.77,4.6-25.68,6.13-28.58a.78.78,0,0,1,1.44.16c1.83,6.95-1.57,21.42-1.57,21.42-11,49,0,85.21,0,85.21,12.9,34.19,12.28,28.54.28,42.62-8.52,10.73-20.53,18.88-31.9,26.39-13.82,11.09-16,36.91-21.39,36.78-20.07-.81-18.93-21.83-45.7-19.33a154.7,154.7,0,0,1-28.55,0c-25.48-2.33-47.66,19.32-67.64,20.12-6,0-23-31.24-37.91-40.33a107.05,107.05,0,0,1-28.08-23.6c-12-14.12-12.63-8.4.4-43,20.16-40.71,24.72-61.7,21.48-107.88C85.85,40.66,98.85,4.26,112.71.14,132.08-3.47,151,62.37,176.43,56.51c13.86-7.26,64.93-5.66,78.92,1.59l9.08,4.41s13.74-37,34.87-51c0,0,10.47,0,5.62,28.29a13.3,13.3,0,0,1-1.68,4.58c-3.07,5.13-10.16,19.19,1.93,22.54a5.52,5.52,0,0,0,6-2,6.79,6.79,0,0,0,1.3-5.44s2,2,2,9c0,0,2-10,5-11"/><path class="cls-9" d="M99.43,124.51c-9.16-1.17-2-29-.17-54.84.62-8.73-.18-17.5,1.25-26.17a63.25,63.25,0,0,1,3.11-12.4c.68-1.72,13.36-20,23.39-1.1,3.48,6.55,10.82,19.51,19,28.57,1.2,1.34-1.65,1.54-3.6,1.94-.68.13-1.31-.08-2,0-2.17.24-3.64,3-3.11,4.8,1.16,3.92,6.68,14.27,17.3,13.87.84,0,1.12.92.36,1.22-3.26,1.28-8.39,2.53-12.57.07,0,0,.85,4.58,4,6.88.68.5.24,1.45-.67,1.45-3.85,0-9.78-.76-11.85-5.71,0,0,1.89,12-2,20.56-.52,1.15-2.52-2.94-2.9-4.13-1-3.13-2.57-7.47-3.86-8.54,0,0,1.3,18.53-13.7,27.53C110.7,118.94,101.84,124.81,99.43,124.51Z"/><path class="cls-2" d="M242.45,111.59a6.28,6.28,0,0,1,.77-5.29,6.47,6.47,0,0,1,1.93-1.9,6.08,6.08,0,0,1,3.3-1h.5l1.44,0,1.84,0,2.08,0,2.16,0,2.09,0,1.86,0,1.47,0,.93,0h.24l12.06.14a1.77,1.77,0,0,1,1,3.34c-6,2-18.6,6.47-24.64,8.65A6.4,6.4,0,0,1,242.45,111.59Z"/><path class="cls-2" d="M205.41,111.59a5.62,5.62,0,0,0,.14-2.79,6.59,6.59,0,0,0-1.13-2.57,7.6,7.6,0,0,0-2.17-2,7.4,7.4,0,0,0-3.65-1.09l-.55,0-1.57-.06-2-.08-2.28-.1-2.38-.1-2.29-.09-2-.08-1.61-.07-1,0h-.26l-13.22-.22a1.75,1.75,0,0,0-1,3.34c6.66,2.23,20.57,7.08,27.25,9.46C199.56,117,204.26,115.36,205.41,111.59Z"/><path class="cls-10" d="M152.43,130h34a19.22,19.22,0,0,1,19.22,19.22V175a0,0,0,0,1,0,0h-21.4a31.85,31.85,0,0,1-31.85-31.85V130a0,0,0,0,1,0,0Z" transform="translate(358.1 305.01) rotate(-180)"/><path d="M176.33,130.15c-5.24,3.81-8.77,10.94-8.77,19.12,0,12.18,7.84,22.06,17.51,22.06s17.52-9.88,17.52-22.06c0-.39,0-.76,0-1.14A31.84,31.84,0,0,0,176.33,130.15Z"/><path class="cls-11" d="M302.53,106.93a22,22,0,0,1-3.88,2.67c-1.51.63-2.16,2.12-3.2,3.19-.14.14-.17.49-.29.55-2,.9-3,3.21-4.65,4.61-.92.78-1.68,1.49-2.93,1.31-1.73-.25-3.83,1.68-4.69,3.75a15.44,15.44,0,0,1-1.49,2.78c-.31.46-.92.65-1.36,1a16.77,16.77,0,0,0-2.15,2,10.8,10.8,0,0,1-3.78,3.09,18.45,18.45,0,0,0-2.7,1.91.57.57,0,0,0-.23.31c-.05,1.42-1.14,2-1.87,2.94a4.78,4.78,0,0,1-2.21,1.31c-1.07.46-2.78.65-3.18,1.6a10.67,10.67,0,0,1-2.88,3.86c-1.05,1-1.81,2.44-2.85,3.46a3.76,3.76,0,0,1-2.12.8A2.35,2.35,0,0,0,254,150a2.7,2.7,0,0,1-1.45,1.76,5.76,5.76,0,0,0-2.87,4c-.12.56-.9,1.2-1.47,1.53a15.29,15.29,0,0,0-6.09,7.07,5.34,5.34,0,0,1-1.31,1.84c-1.25,1-1.72,2.57-2.71,3.71-.66.77-1.38,1.45-2.05,2.21a5,5,0,0,0-.77,1.18,24.61,24.61,0,0,1-4.86,7.25,1.21,1.21,0,0,1,.16-.43c1.85-1.68,2.4-4,3.09-6.32,0-.13,0-.34.08-.37,1.5-.87,1.48-2.8,2.42-4.05s1.69-2.26,2.56-3.37a1.43,1.43,0,0,1,.61-.32,3.54,3.54,0,0,0,2.15-3.09,2.84,2.84,0,0,1,1.25-2.25,3.6,3.6,0,0,0,1.25-1.87,7.36,7.36,0,0,1,3.09-4.71,1.69,1.69,0,0,0,.41-.26c1-1.16,2.05-2.31,3-3.51.21-.26.16-.78.34-1.1.73-1.27,1.41-2.63,2.83-3a1.65,1.65,0,0,0,1.22-1.41c.44-1.71,1.64-2.72,2.82-3.79a7.75,7.75,0,0,0,1.66-2.31c.52-1.14,1.1-1.63,2.14-1.52s1.69-1,2.27-1.92a29.26,29.26,0,0,1,1.54-2.63c.37-.44,1.08-.49,1.63-.74.33-.16.85-.31.93-.57.77-2.28,2.6-2.76,4.13-3.76a4.06,4.06,0,0,0,.87-.62c.57-.61,1.07-1.11,1.91-.93.3.06,1-.59,1.23-1.06a6.64,6.64,0,0,1,4.88-4,2.81,2.81,0,0,0,1.23-.73,17.89,17.89,0,0,1,1.62-1.54c1.36-.85,2.51-2.08,4.16-2.44,1.4-.31,2.84-1.52,4.13-2.59a30.17,30.17,0,0,1,4-2.87c1.91-1.11,3.76-2.46,5.73-3.44a2.38,2.38,0,0,0,.37-.35Z"/><path class="cls-11" d="M267.71,148.82l-.65-.89c.45-.91.74-1.64,1.15-2.3.24-.38.78-1,1-.89,1.13.39,2-.72,2.91-1.13a7.77,7.77,0,0,0,4.06-4.94c.42-1.24,1.94-2.6,3-2.49a2.39,2.39,0,0,0,2.18-1.1,15.55,15.55,0,0,1,2.12-2.41c1.51-1.18,3.27-1.94,4.66-3.27,1.8-1.71,4.08-2.23,5.73-4.39.95-1.24,2.57-1.83,3.89-2.7.2-.13.52-.13.63-.31,1.22-1.94,3.36-1.76,4.73-3.34,0,0,.12,0,.31.07a4.83,4.83,0,0,1-.76,1c-1.25.93-2.54,1.76-3.79,2.7-.7.52-1.75.72-1.69,2.14,0,.15-.85.5-1.31.76s-.88.32-1,.58A7.82,7.82,0,0,1,290,131,2.08,2.08,0,0,0,289,132.3c-.16,1.7-1.47,2.36-2.31,3.41a14,14,0,0,1-1.64,1.53c-.09.08-.21.23-.29.22-2.15-.29-2.45,1.81-3.17,3.37a24.32,24.32,0,0,1-1.43,2.84,12.37,12.37,0,0,1-1.52,1.64c-.59.64-1.1,1.52-1.76,1.87s-1.48,0-2.18.26-1.09.94-1.65,1.4-1.23,1-1.87,1.46-1,.43-.89,1.39a3.37,3.37,0,0,1-1.95,3.26c-.76.39-1.5.85-2.25,1.28a3.76,3.76,0,0,1-2.49,3c-1.87.37-2.87,1.84-3.9,3.44l-.55.84c-.71-.42-1.21-.1-1.77.8a30.22,30.22,0,0,1-2.55,3.3c-.15.18-.48.13-.71.25a2.66,2.66,0,0,0-1.08.64c-.71,1-1.32,2.14-2,3.22,0,.07-.08.17-.15.21-1.81,1.09-2.84,3.11-4.2,4.75-.2.23-.54.29-.79.49a6.14,6.14,0,0,0-1.07,1c-.85,1.1-1.66,2.24-2.49,3.37-.25.34-.53.66-.77,1-.68,1-1.34,2-2,2.94l-.29-.25c.95-1.4,1.95-2.78,2.84-4.22.78-1.24,1.33-2.67,2.19-3.82a29.12,29.12,0,0,1,2.9-3,5.44,5.44,0,0,0,1.39-2c.62-1.56,1.12-3.35,2.8-4.37,1-.63,1.84-2,2.73-3.06.33-.39.57-.95.94-1.2,1.17-.78,1.45-2.19,2.17-3.28a23.19,23.19,0,0,1,2.17-2.38c.76-.86,1.5-1.76,2.23-2.66.16-.19.33-.62.44-.61,1.66.11,1.82-1.46,2.33-2.68a3.84,3.84,0,0,1,.93-1.33C266.05,150,266.87,149.44,267.71,148.82Z"/><path class="cls-11" d="M301.33,132.53c-.84.65-1.7,1.26-2.52,2a9.51,9.51,0,0,0-.9,1.21,3.37,3.37,0,0,1-.68.68c-.56.41-1.2.67-1.27,1.63,0,.15-.53.51-.76.5-1.17-.09-1.79.61-2.27,1.85a2.37,2.37,0,0,1-1.1,1.22c-1.55.52-2.09,2.07-2.89,3.39-.28.46-.49,1.15-.85,1.34-1.22.66-1.67,1.94-2.29,3.1-.09.15-.16.46-.22.46-1.51.06-1.91,2.47-3.42,2.54-.85,0-1,.8-1,1.5-.14,2.05-.54,2.74-2.17,3.33a16.77,16.77,0,0,1-2.29.51c-.12,0-.28,0-.33.05a13.06,13.06,0,0,0-1.25,1.88c-.3.66-1,.41-1.31,1.49a6.1,6.1,0,0,1-2.33,3c-1.08.72-2.3,1-2.69,2.63,0,.15-.2.39-.3.4-2,.27-2.09,2.71-3.29,3.86a8.57,8.57,0,0,1-1.4,1.1c-.61.39-1.11.72-.7,1.59a1.27,1.27,0,0,1-.34.93,30.23,30.23,0,0,0-2.63,2c-.77.79-1.35,1.85-2.18,2.68a4.65,4.65,0,0,1,.37-.85,49.19,49.19,0,0,1,4.53-6.31,19.58,19.58,0,0,0,3.3-5,18.1,18.1,0,0,1,1.91-2.49c1.24-1.67,2.45-3.35,3.66-5a1.23,1.23,0,0,0,.2-.62c.09-1.51,1.3-2.11,2-3.09s1.34-1.87,2-2.79a17.71,17.71,0,0,1,1.16-1.51c.34-.37.82-.58,1.13-1,.47-.6.88-.88,1.56-.71s1.23-.1,1.68-1c.35-.74.69-1.78,1.71-1.74.11,0,.29-.17.38-.3a16.11,16.11,0,0,1,4.72-4.32,43,43,0,0,0,4-3.88,9.16,9.16,0,0,1,1.19-.75c1.34-1,2.69-1.93,4-2.95s2.37-1.91,3.55-2.88Z"/><path class="cls-12" d="M269.31,130h11.07a0,0,0,0,1,0,0v28.7A16.23,16.23,0,0,1,264.16,175H242.43a0,0,0,0,1,0,0v-18A26.89,26.89,0,0,1,269.31,130Z"/><path class="cls-13" d="M279.43,150.51c0-9.91-5.07-18.19-11.88-20.4a26.76,26.76,0,0,0-14.43,5.35,25.07,25.07,0,0,0-4.69,15c0,11.59,6.94,21,15.5,21S279.43,162.1,279.43,150.51Z"/><path class="cls-14" d="M268.52,191.1c-1.82-1.75-6.77-6.35-8.59-8.09-6.17-5.91-5.62-4.48-15.38-11.42a20.7,20.7,0,0,0-6.17-3.53,1.47,1.47,0,0,1-.88-.83h0a18.83,18.83,0,0,1-.61-12.67l5-16.55c.26-1.29-1.48-2.37-2.27-1.32L232.93,144l8-26c.28-4-7.53-3.19-10,0-5.22,6.72-10.13,18-11.5,41.27a37.9,37.9,0,0,0,.65,9.51c-9.77,4.51-38.45,14.88-49.22,17.37-9.23,3.25-21.06,6.37-22.9,18.15-2.25,5.95-3.56,25.65,5.4,31.43,15.62,14.3,57.07,40.79,83.41,34.71,19.65-2.15,22.46-25.37,34.58-35.71C282.83,223.71,281.93,204,268.52,191.1Z"/><path class="cls-9" d="M230.25,179c-3.64-1.48-7.73.52-11.37,2a20.18,20.18,0,0,0-3.45,1.81,5.1,5.1,0,0,0-2.26,4.25c0,1.74-.23,4,1.44,5.16,2.49,2.09,3.56-3.27,6.58-1.3,1.06.39,1.89,2.58,2.55,4.45.27.78,4.37.78,4.64,0,.66-1.87,1-4.44,2.05-4.82,3-2,1.59,1.76,4.08-.33,1.67-1.11,1.48-3.42,1.45-5.16a5.11,5.11,0,0,0-2.27-4.25A20.11,20.11,0,0,0,230.25,179Z"/><path class="cls-15" d="M204.93,222c-3.38-.13-4-1-8-2a28,28,0,0,1-3.88-1.4c-.14-.07-.16.25-.1.39,1.79,4,5.25,9.58,10.13,12.38.64.36.85.63,1.91-.35s5-4.35,6.94-8c.13-.25-1.88-.19-2.15-.15C208.83,223,206.06,222.05,204.93,222Z"/><path class="cls-16" d="M162.81,221.53c11-6.76,25.12-5.52,31.12-2.52,3.79,1.89,14,5,20.74,3,11.1-3.25,12.89-10.3,12.89-10.3s1.81,10.7,13.37,10.27c3.37-.13,7.17-2.25,10-4.1,4.29-2.81,9.92-3.14,20.38,2.62"/><line class="cls-17" x1="227.66" y1="202.38" x2="227.66" y2="213.51"/><path class="cls-18" d="M186.88,615s-13.58-6.83-25.94,1.09a4.7,4.7,0,0,0-.79,7.27l22.37,22.36a4.6,4.6,0,0,0,7.43-1.29C193.41,636.9,197.32,623.53,186.88,615Zm0,23.56a3.24,3.24,0,0,1-5.24.92l-15.76-15.76a3.3,3.3,0,0,1,.56-5.12c8.71-5.59,18.28-.77,18.28-.77C192,623.84,189.28,633.26,186.84,638.57Z"/><rect class="cls-18" x="184.98" y="604.51" width="7.6" height="18.99" rx="2" transform="translate(489.46 46.35) rotate(45)"/><path class="cls-19" d="M191.12,605.25l5.89,6.66a4,4,0,0,0,4.45,1.1c19.5-7.4,94.85-41.63,157.65-41.19a3,3,0,0,0,3.05-3.21c-.23-4.05-.69-10.82-1.4-14.91a2.63,2.63,0,0,0-3.06-2.16c-25.06,4.45-106,16.17-165.43,47.47A4,4,0,0,0,191.12,605.25Z"/><path class="cls-18" d="M83,638.44a4.6,4.6,0,0,0,7.43,1.29l22.36-22.36a4.69,4.69,0,0,0-.79-7.27C99.64,602.18,86.06,609,86.06,609,75.63,617.53,79.53,630.9,83,638.44Zm5.27-26.6s9.56-4.82,18.28.77a3.31,3.31,0,0,1,.55,5.12L91.34,633.49a3.24,3.24,0,0,1-5.24-.92C83.66,627.26,80.91,617.84,88.27,611.84Z"/><rect class="cls-18" x="80.37" y="598.51" width="7.6" height="18.99" rx="2" transform="translate(573.61 978.42) rotate(135)"/><path class="cls-19" d="M70.23,607.7a3.87,3.87,0,0,0,6.11-.75l4.36-7.58a4.11,4.11,0,0,0-.34-4.56S57,577.14,58.73,567.32c0,0-4.3,17-2.3,22.1A82.56,82.56,0,0,0,70.23,607.7Z"/><path class="cls-18" d="M191.26,754s-.78-10.28-9.71-14.69a3.18,3.18,0,0,0-4.49,2.08l-5.18,20.82a3.12,3.12,0,0,0,3.35,3.86C180.82,765.41,190,763,191.26,754Zm-13.71,8.21a2.19,2.19,0,0,1-2.36-2.72l3.65-14.67a2.24,2.24,0,0,1,3.17-1.47c6.29,3.12,6.84,10.36,6.84,10.36C187.93,760,181.49,761.74,177.55,762.17Z"/><rect class="cls-18" x="189.93" y="748.27" width="5.15" height="12.88" rx="1.36" transform="translate(971.37 750.07) rotate(103.97)"/><path class="cls-19" d="M231.25,773.33,199.2,766A5.14,5.14,0,0,1,195,760l1.3-7.63a5.15,5.15,0,0,1,5.92-4.2l34.1,5.38c2.78.48,4.4,1.13,3.93,3.91l-1.53,3.78c-.62,1.53-3.53,7.66-4.94,10.44C233.79,771.73,233,773.64,231.25,773.33Z"/><path class="cls-18" d="M99.06,766.62c1.86-.15,2.9-2.41,2-4.38L92.42,742.8c-.82-1.84-2.87-2.44-4.22-1.24-6.59,5.91-5.12,16.1-5.12,16.1C86,766.28,94.23,767,99.06,766.62Zm-14-9.67s-1-7.19,3.61-11.35a1.88,1.88,0,0,1,3,.87l6.1,13.7a2.11,2.11,0,0,1-1.42,3.09C92.9,763.53,87.14,763,85.05,757Z"/><path class="cls-18" d="M88.06,758.8l.12-2.41a1.18,1.18,0,0,0-1.12-1.32l-8.83.18A1.39,1.39,0,0,0,77,756.62L76.87,759A1.17,1.17,0,0,0,78,760.36l8.83-.19A1.39,1.39,0,0,0,88.06,758.8Z"/><path class="cls-19" d="M76.42,765.31a1,1,0,0,0,1.41,1,5.46,5.46,0,0,0,3-4.88l.18-7.71A4.86,4.86,0,0,0,78.21,749a1.05,1.05,0,0,0-1.44,1Z"/><path class="cls-19" d="M183.44,743.87l.62,7.46a7.74,7.74,0,0,1-2.51,6.39l-2.83,2.57c-2.07,1.88-4.91,1-7.64,1.59-29.65,6.64-49.55,1.26-67,2.42a7.78,7.78,0,0,1-3.92-.75l-5.8-2.82A7.74,7.74,0,0,1,90,754.25C89,737.67,94.79,654.59,86.52,627.5l14.34-10.45a7.74,7.74,0,0,1,8.51-.36c7.06,4.18,25.78,14.5,54.95,5.93a7.65,7.65,0,0,1,8,2.39l9.79,11.38a7.78,7.78,0,0,1,1.65,6.92l-2.08,8.45a7.79,7.79,0,0,0-.19,2.5S181.62,722.12,183.44,743.87Z"/><path class="cls-20" d="M97.21,719.47l.84-22.79,1.34-35.78c.12-3.35,3.58-6,7.82-6h54.22c10,0,12,6.42,12,14.33v68c0,6.09-6.24,11-13.94,11H111.3A11.92,11.92,0,0,1,100,740.13C98.49,735.69,97.21,729.08,97.21,719.47Z"/><path class="cls-21" d="M131.54,649.67l9.08-.2,2.31-38.91s-.15-10.78-7.59-10.57c0,0-4.51-.1-7.12,7.55a2.37,2.37,0,0,0,.85,2.78c1.19.73,2.63,2,2.32,3.95,0,0-.14,3.28-.78,8.31,0,0-.93,9.86.27,17.12a48.63,48.63,0,0,1,.68,7.16C131.58,648.11,131.59,649.24,131.54,649.67Z"/><path class="cls-22" d="M131.79,649.51l8.58.12-2.05,53.51s-1.08,24.84-3.89,37.32c0,0-3.78-1.11-9.16-16.44,0,0-6.21-18.08-6.14-34.34,0-2.08,0-4.16-.06-6.23L118.32,661a2.35,2.35,0,0,1,1.37-2.24l7.67-3.11a7.06,7.06,0,0,0,3.46-3A7.18,7.18,0,0,0,131.79,649.51Z"/><path class="cls-23" d="M106.43,717.3l.67-18.63,1.07-29.25c.1-2.74,2.87-4.91,6.26-4.91h38.5c8,0,14.5,5.24,14.5,11.71v55.56c0,3.89-14.78,11.59-24.16,14.75a20.1,20.1,0,0,1-10.07.67l-5.77-2.69S106.43,735.93,106.43,717.3Z"/><path class="cls-2" d="M107,281.7C92.09,293.31,72.26,323.85,72.5,404.21a33.79,33.79,0,0,0,6.68,20.17c8.89,11.89,26.58,25.18,52-4.1a35.93,35.93,0,0,0,8.46-17.93c3.73-23.58,11.9-86.58-1.86-114.57C132.42,276.85,117.08,273.9,107,281.7Z"/><path class="cls-2" d="M117.62,552.57C131,538.75,147,503.08,137.16,411.15a45.54,45.54,0,0,0-9-22.83c-10.2-13.28-29.29-27.84-50.94,6.6A41.46,41.46,0,0,0,71,415.74c-.87,27.11-1.44,99.48,15.5,131C93.08,559.06,108.61,561.87,117.62,552.57Z"/><path class="cls-2" d="M78.78,531.75c0,17.44-18.18,52.22-8.25,73.14.83,1.75,1.31,3.62,2.23,5.35a32.45,32.45,0,0,0,3.2,4.87,37,37,0,0,0,8.65,7.81,46.26,46.26,0,0,0,22.54,7.34,39.29,39.29,0,0,0,22.42-5,29.15,29.15,0,0,0,10-10c2.7-4.52,4.18-10.08,5-15.27a32.87,32.87,0,0,0-.32-13c-1-4.26-3.07-8.34-5-12.29-4.75-9.67-10.74-19.56-11.62-30.37a34.27,34.27,0,0,1,.17-6.16c2-20.67-34.63-22.59-46.2-12.56A8.13,8.13,0,0,0,78.78,531.75Z"/></g></g></svg>