<?xml version="1.0" encoding="UTF-8"?>
<svg id="Capa_2" data-name="Capa 2" xmlns="http://www.w3.org/2000/svg" viewBox="0 0 599.09 617.7">
  <defs>
    <style>
      .cls-1 {
        fill: #ddda52;
      }

      .cls-2 {
        fill: #e8e85b;
      }

      .cls-3, .cls-4 {
        fill: #f2eee7;
      }

      .cls-3, .cls-5 {
        stroke-width: 2.14px;
      }

      .cls-3, .cls-5, .cls-6, .cls-7 {
        stroke: #000;
        stroke-miterlimit: 10;
      }

      .cls-8 {
        fill: #f2eea5;
      }

      .cls-5, .cls-7 {
        fill: none;
      }

      .cls-6 {
        fill: #e5dcb1;
        stroke-width: .94px;
      }

      .cls-9 {
        fill: #f9c0d3;
      }

      .cls-10 {
        fill: #ef6a90;
      }

      .cls-11 {
        fill: #1a1a1a;
      }

      .cls-7 {
        stroke-width: 2.3px;
      }
    </style>
  </defs>
  <g id="_3_4_FRONTAL_2" data-name="3/4 FRONTAL 2">
    <g>
      <path class="cls-10" d="m442.86,65.26s33.8,72.15,67.26,55.36l7.74,92.5-131.09-67.66,56.09-80.2Z"/>
      <rect class="cls-4" x="215.75" y="516.98" width="186.96" height="100.72" rx="25.46" ry="25.46" transform="translate(618.45 1134.68) rotate(-180)"/>
      <g>
        <g>
          <path class="cls-11" d="m578.52,332.06c-14.99-30.26-25.95-55.44-33.59-79.55h0c-3.48-9.08-6.13-19.99-8.14-31.19-4.28-20.99-5.97-32.74-6.07-57.49l-.05-2.23c-.14-5.9-.82-11.78-2.16-17.52-6.57-28.11-15.09-37.04-20.96-39.66-3.37-1.5-7.3.49-8.29,4.04-11.74,41.99,12.17,91.8,12.17,91.8-6.51-3.9-12.22-15.71-15.71-24.38-1.77-4.41-4.32-8.42-7.06-12.3-5.6-7.92-.8-31.9-.8-31.9-5.92,1.48-11.84,15.22-14.93,23.58-.54,2.01-1.26,4.14-2.21,6.42,0,0,.82-2.67,2.21-6.42,5.6-20.74-8.64-27.87-8.64-27.87-1.12,4.12-2.49,7.38-3.98,9.95-4.54,7.83-14.59,10.57-22.55,6.26-34.99-18.94,2.96-39.78,2.96-39.78,29.1-27.28,15.15-65.36,10.26-76.26-.81-1.81-2.82-2.82-4.73-2.25l-.16.05c-7,2.12-13.08,6.53-17.27,12.53-26.72,38.3-55.25,90.1-89.19,82.28-29.71-15.55-121.79-14.74-151.77.8,0,0-55.35-94.28-94.67-119.81-2.59-1.68-6-1.52-8.42.41-1.72,1.37-3.39,3.04-4.98,4.87-7.79,8.94-9.02,49.19-7.65,60.97,2.22,19.05,6.48,26.37-1.33,62.32-3.42,15.73-6.1,31.62-8.09,47.6-13.03,104.93-42.41,155.45-42.41,155.45-27.65,73.26-26.32,61.17-.6,91.33,18.25,22.99,43.98,40.47,68.35,56.56,29.61,23.76,34.25,79.08,45.84,78.8,43-1.72,40.56-46.78,97.93-41.41,20.36,1.9,40.81,1.8,61.18-.06,54.6-5,102.13,41.39,144.94,43.1,12.79.02,49.19-66.94,81.24-86.42,22.42-12.66,43.75-31.13,60.18-50.57,25.8-30.26,27.06-17.99-.86-92.04Z"/>
          <g>
            <g>
              <path class="cls-9" d="m439.25,229.52c-3.34.5-6.5,1.76-10.11,1.59-4.03-.19-5.52,2.5-8.19,3.91-.34.18-.35.95-.67.96-5.33.17-7.66,4.57-11.94,6.47-2.38,1.06-4.35,2.15-7.85.79-4.84-1.9-10.28,1.23-12.26,5.65-.93,2.07-2.12,4.07-3.57,5.8-.78.92-2.44,1.04-3.59,1.7-1.92,1.12-3.98,2.15-5.55,3.71-2.81,2.76-5.96,4.74-9.91,5.85-2.54.71-4.77,2.37-7.13,3.68-.25.14-.57.44-.56.68.15,3.56-2.77,4.7-4.62,6.75-1.64,1.81-3.69,1.99-5.88,2.64-2.89.86-7.59.9-8.51,3.25-1.64,4.16-4.11,6.66-7.21,9.33-2.73,2.35-4.52,5.99-7.2,8.5-1.38,1.3-3.78,1.67-5.74,1.81-3.03.22-4.83,1.85-5.46,4.9-.49,2.39-1.75,3.43-3.65,4.5-3.79,2.13-6.41,5.36-7.14,10.42-.21,1.48-2.25,3.15-3.76,4.04-7.19,4.21-12.12,10.66-15.42,18.96-.73,1.83-1.84,3.82-3.24,4.97-3.25,2.67-4.21,7-6.72,10.14-1.67,2.09-3.53,3.99-5.21,6.09-.76.95-1.45,2.07-1.89,3.23-2.84,7.43-6.7,14.14-11.99,19.96.12-.39.13-.92.37-1.15,4.78-4.72,5.81-11.11,7.26-17.31.08-.34,0-.9.14-.99,3.96-2.49,3.51-7.66,5.87-11.09,2.12-3.09,4.21-6.21,6.38-9.24.34-.48,1.07-.66,1.64-.9,3.24-1.38,5.23-4.46,5.3-8.39.05-2.6.85-4.46,3-6.08,1.4-1.06,2.79-3.22,3.07-5.02.87-5.54,3.32-9.66,7.59-12.56.36-.24.81-.36,1.08-.68,2.58-3.06,5.19-6.06,7.64-9.19.53-.68.27-2.05.72-2.9,1.75-3.29,3.35-6.83,7.22-7.58,1.89-.36,2.72-1.54,3.12-3.58.86-4.44,3.98-6.9,7.03-9.5,1.72-1.46,3.21-3.57,4.13-5.71,1.22-2.84,2.74-3.99,5.64-3.45,3.16.58,4.49-2.19,5.94-4.36,1.35-2.03,2.17-4.55,3.75-6.28.93-1.02,2.9-.9,4.38-1.37.89-.28,2.29-.5,2.48-1.12,1.67-5.52,6.67-6.01,10.72-7.83.79-.35,1.66-.61,2.3-1.16,1.47-1.27,2.75-2.27,5.12-1.41.86.31,2.76-.94,3.22-1.99,1.98-4.62,7.62-7.73,12.77-6.88,1.1.18,2.29-.47,3.28-.98,1.46-.77,2.63-2.11,4.19-2.58,3.61-1.1,6.55-3.16,11.07-2.69,3.82.39,7.57-1.24,10.92-2.53,3.4-1.31,6.75-2.28,10.55-2.74,5.03-.61,9.85-1.63,15.05-1.53.36,0,.63-.21.94-.32.37.27.74.54,1.11.81Z"/>
              <path class="cls-9" d="m351.25,306.35c-1.01-1.2-1.72-2.05-1.99-2.37,1.06-2.22,1.73-4.01,2.73-5.56.59-.92,1.97-2.25,2.53-2.03,3.22,1.26,5.32-1.28,7.88-2.03,5.43-1.61,8.56-5.61,10.27-10.86.94-2.89,4.86-5.59,7.79-4.86,2.54.63,4.24-.14,5.84-1.67,1.74-1.66,3.3-3.65,5.39-4.71,3.96-2.01,8.68-2.81,12.26-5.03,4.64-2.87,10.85-2.52,14.99-6.14,2.38-2.08,6.72-2.13,10.19-2.94.53-.12,1.39.13,1.66-.16,2.98-3.2,8.89-.89,12.32-2.93.06-.04.34.16.87.43-.68.56-1.12,1.3-1.89,1.5-3.24.81-6.62,1.46-9.86,2.45-1.81.55-4.66.13-4.23,3.29.05.34-2.25.43-3.46.67-.89.17-2.37.05-2.57.58-1.98,5.27-6.37,7.5-12.45,8.14-1.1.11-2.61,1.35-2.63,2.31-.11,3.82-3.6,4.6-5.71,6.64-1.18,1.13-2.82,1.84-4.25,2.75-.24.15-.53.45-.75.39-6.04-1.7-6.44,3.16-8.13,6.6-1.04,2.12-2.03,4.32-3.4,6.24-.98,1.36-2.59,2.27-3.88,3.43-1.5,1.35-2.74,3.33-4.51,4-1.74.66-4.12-.44-6,.04-1.59.41-2.83,2.03-4.29,3.04-1.6,1.11-3.22,2.21-4.91,3.18-1.3.74-2.67.87-2.19,3.29.69,3.45-1.53,6.49-4.74,7.85-2.03.86-4,1.92-6.01,2.92.27,2.42-2.86,6.82-6.31,7.35-5.09.78-7.58,4.51-10.1,8.57-.41.66-.83,1.3-1.36,2.15-2.07-1.08-3.38-.29-4.75,2.06-1.79,3.07-4.17,5.78-6.4,8.58-.37.47-1.3.35-1.93.66-.99.49-2.29.85-2.85,1.71-1.75,2.71-3.22,5.65-4.8,8.51-.11.2-.2.47-.37.57-4.8,2.97-7.24,8.37-10.67,12.82-.49.64-1.44.83-2.09,1.37-.97.82-2.01,1.64-2.75,2.68-2.14,3-4.14,6.12-6.2,9.2-.63.94-1.34,1.82-1.94,2.78-1.67,2.67-3.3,5.38-4.95,8.08-.28-.21-.57-.42-.85-.63,2.35-3.86,4.81-7.64,7-11.58,1.89-3.39,3.13-7.25,5.26-10.39,2.07-3.05,4.92-5.45,7.43-8.12,1.45-1.55,2.61-2.9,3.43-5.36,1.39-4.17,2.41-8.91,6.88-11.65,2.76-1.69,4.67-5.31,6.92-8.06.83-1.01,1.38-2.47,2.36-3.12,3.08-2.02,3.58-5.68,5.35-8.49,1.46-2.31,3.72-4.01,5.54-6.05,1.94-2.17,3.78-4.43,5.64-6.65.41-.49.79-1.56,1.08-1.53,4.65.47,4.76-3.52,5.95-6.55.48-1.22,1.31-2.47,2.3-3.24,1.94-1.53,4.1-2.72,6.31-4.12Z"/>
            </g>
            <path class="cls-9" d="m441.12,282.82c-2.19.78-4.44,1.5-6.54,2.48-.92.44-1.46,1.39-2.25,2.04-.51.43-1.09.82-1.74,1.06-1.46.55-3.19.75-3.18,2.79,0,.33-1.36.83-2.01.67-3.23-.82-4.81.41-5.89,2.91-.43.98-1.68,2.08-2.78,2.2-4.2.44-5.39,3.72-7.32,6.4-.68.94-1.14,2.41-2.1,2.72-3.25,1.05-4.24,3.85-5.73,6.33-.2.33-.34,1.02-.49,1.01-4.18-.33-4.8,5.19-8.98,4.97-2.35-.13-2.47,1.66-2.46,3.31.02,4.81-.96,6.34-5.38,7.46-2.02.52-4.16.58-6.25.85-.3.04-.77-.08-.89.08-1.08,1.42-2.35,2.77-3.08,4.38-.7,1.55-2.81.87-3.35,3.46-.55,2.66-3.34,5.6-5.87,7.14-2.83,1.71-6.18,2.29-6.9,6.41-.06.36-.49.95-.76.98-5.52.62-5.24,6.73-8.34,9.66-1.12,1.06-2.36,2.02-3.66,2.82-1.61,1-2.92,1.86-1.63,4.04.26.44-.22,1.94-.75,2.37-2.24,1.83-4.87,3.17-6.87,5.26-1.99,2.08-3.38,4.84-5.51,7.07.28-.75.44-1.6.86-2.25,3.67-5.62,6.82-11.78,11.27-16.4,3.77-3.91,5.92-8.17,8.11-12.78,1.1-2.31,3.24-4.09,4.81-6.17,3.09-4.1,6.12-8.19,9.14-12.22.29-.39.43-1,.42-1.5-.06-3.73,3.19-5.03,5.04-7.31,1.73-2.13,3.34-4.32,5.03-6.43.94-1.17,1.84-2.39,2.92-3.41.86-.81,2.16-1.18,2.93-2.05,1.2-1.34,2.27-1.9,4.21-1.32,1.77.53,3.39.1,4.43-1.99.82-1.65,1.57-4,4.4-3.59.31.04.77-.29.98-.57,3.09-4.18,7.7-6.1,12.23-8.21,3.8-1.78,6.88-4.69,10.35-6.86.89-.55,2.11-.66,3.12-1.06,3.52-1.42,7.05-2.75,10.49-4.12,3.13-1.25,6.14-2.61,9.2-3.81.25.38.5.77.75,1.15Z"/>
          </g>
        </g>
        <g>
          <g>
            <g>
              <path class="cls-4" d="m198.14,238.21c.59-1.94.74-3.99.43-5.94-.3-1.96-1.04-3.8-2.08-5.38-1.09-1.66-2.51-3.05-4.14-4.08-2.16-1.38-4.51-2.1-7.08-2.12-.35,0-.71,0-1.06,0l-3.08-.05-3.94-.06c-1.49-.02-2.97-.05-4.46-.07-1.55-.02-3.09-.05-4.64-.07s-2.99-.05-4.48-.07c-1.33-.02-2.66-.04-3.99-.06l-3.15-.05-1.98-.03h-.51s-25.85.29-25.85.29c-4.29-.53-6.04,5.2-2.2,7.17,12.9,4.35,39.84,13.87,52.78,18.54,7.65,3.9,16.95.08,19.42-7.99Z"/>
              <path class="cls-4" d="m277.51,238.21c-.59-1.94-.69-4-.3-5.98.39-1.98,1.25-3.86,2.44-5.49,1.24-1.71,2.85-3.15,4.65-4.24,2.41-1.46,5.01-2.25,7.82-2.34.39-.01.78-.02,1.16-.04l3.38-.14,4.32-.18c1.63-.07,3.26-.13,4.89-.2l5.09-.21c1.64-.07,3.28-.13,4.91-.2l4.37-.18c1.15-.05,2.3-.09,3.46-.14l2.17-.09.56-.02,28.33-.46c4.71-.66,6.47,5.07,2.2,7.17-14.27,4.77-44.08,15.17-58.4,20.26-8.5,4.16-18.58.58-21.05-7.49Z"/>
            </g>
            <g>
              <path class="cls-1" d="m116.86,277.75h46.56c19.19,0,34.77,15.58,34.77,34.77v61.51h-23.72c-31.8,0-57.62-25.82-57.62-57.62v-38.66h0Z" transform="translate(315.06 651.77) rotate(-180)"/>
              <path d="m118.91,321.6c0-21.23,10.86-38.98,25.46-43.72,11.56.75,22.2,4.91,30.91,11.48,6.2,8.18,10.06,19.59,10.06,32.23,0,24.85-14.87,45-33.21,45-18.34,0-33.21-20.15-33.21-45Z"/>
            </g>
            <g>
              <path class="cls-2" d="m345.21,277.75h45.85v55.1c0,22.73-18.45,41.18-41.18,41.18h-72.91v-28.04c0-37.66,30.58-68.24,68.24-68.24Z"/>
              <path class="cls-8" d="m339.83,277.98c11.24,8.17,18.8,23.45,18.8,40.97,0,26.12-16.81,47.29-37.54,47.29-20.73,0-37.54-21.17-37.54-47.29,0-.82.06-1.63.09-2.44,10.27-21.4,31.36-36.59,56.18-38.52Z"/>
            </g>
          </g>
          <g>
            <path class="cls-3" d="m400.62,436.9c-3.93-25.24-29.29-31.93-49.08-38.9,0,0-81.19-23.09-100.48-29.52-3.56-8.63-10.02-26.27-7.3-35.2l10.8-35.48c.56-2.75-3.17-5.07-4.87-2.83l-14.42,15.69,17.14-55.72c.62-8.63-16.12-6.84-21.43,0-11.19,14.41-21.7,38.49-24.64,88.45-.39,6.71-1.54,9.73-.34,16.18-4.42,1.7-8.61,4.09-12.38,7.2-20.9,14.87-19.74,11.81-32.94,24.47-3.9,3.74-14.52,13.58-18.42,17.34-28.73,27.66-30.66,69.9-6.06,93.52,25.98,22.17,32,71.93,74.1,76.53,56.46,13.04,145.27-43.73,178.73-74.39,19.2-12.38,16.4-54.58,11.57-67.34Z"/>
            <path class="cls-10" d="m215.58,384.4c7.3-4.21,16.57-1.16,24.73.93,2.46.63,5.13,1.54,7.84,2.85,3.29,1.58,5.55,4.73,6.05,8.34.58,3.69,1.65,8.54-1.56,11.38-4.68,5.17-8.51-5.9-14.34-.83-2.14,1.12-3.27,6.03-4.12,10.18-.35,1.73-9.06,2.92-9.86,1.35-1.94-3.77-3.37-9.14-5.74-9.64-6.98-3.31-2.87,4.22-8.77.5-3.86-1.87-4.14-6.84-4.57-10.54-.5-3.61.84-7.25,3.57-9.66,2.26-1.99,4.58-3.58,6.78-4.85Z"/>
            <path class="cls-6" d="m191.36,472.88c-5.65-2.61-9.51-4.93-14.05-7.04-1.8-.84-3.59-1.76-5.46-2.39-.99-.33.3,4.71.46,5.12.47,1.23.96,2.44,1.48,3.64,1.16,2.66,2.44,5.25,3.87,7.74,2.83,4.91,6.28,9.59,10.66,12.83,1.05.78,1.41,1.34,3.17-.75,2.13-2.52,4.25-5.04,6.17-7.78,1.4-1.98,2.71-4.04,3.86-6.22.38-.72.95-1.39,1.2-2.19.48-1.52-.57-1.23-1.7-1.33-2.71-.26-5.42-.69-8.09-1.26-.53-.11-1.09-.13-1.59-.36Z"/>
            <path class="cls-5" d="m368.81,473.79c-23.65-14.49-53.82-11.83-66.68-5.4-8.13,4.07-30,10.71-44.44,6.49-23.79-6.96-27.64-22.07-27.64-22.07,0,0-3.87,22.94-28.64,22-7.24-.27-15.37-4.8-21.43-8.77-9.2-6.02-21.26-6.74-43.68,5.6"/>
            <line class="cls-7" x1="229.83" y1="432.77" x2="229.83" y2="456.6"/>
          </g>
        </g>
      </g>
    </g>
  </g>
</svg>