<?xml version="1.0" encoding="UTF-8"?>
<svg id="Capa_2" data-name="Capa 2" xmlns="http://www.w3.org/2000/svg" viewBox="0 0 284.57 290.76">
  <defs>
    <style>
      .cls-1 {
        fill: #e8e85b;
      }

      .cls-2 {
        fill: none;
      }

      .cls-2, .cls-3, .cls-4, .cls-5 {
        stroke: #000;
        stroke-miterlimit: 10;
      }

      .cls-6, .cls-4 {
        fill: #e5dcb1;
      }

      .cls-7, .cls-5 {
        fill: #f2eee7;
      }

      .cls-8 {
        fill: #fffdae;
      }

      .cls-3 {
        stroke-width: .35px;
      }

      .cls-3, .cls-9 {
        fill: #1a1a1a;
      }

      .cls-10 {
        fill: #f9c0d3;
      }

      .cls-11 {
        fill: #ef6a90;
      }

      .cls-4 {
        stroke-width: .5px;
      }
    </style>
  </defs>
  <g id="_3_4_FRONTAL_2" data-name="3/4 FRONTAL 2">
    <g>
      <rect class="cls-7" x="91.5" y="243.76" width="99.5" height="47" rx="12.69" ry="12.69"/>
      <g>
        <path class="cls-11" d="m227.13,29.68s-2.48,16.04,4.69,27.86c0,0,7.45,14.71,20.76,14.93l-3.89,36.09-30.88-33.45-12.3-18.3,21.63-27.13Z"/>
        <path class="cls-9" d="m275.09,155.72c-16.99-35.2-20.72-55.19-17.2-96.1.03-2.25-.23-12.68-4.22-9.58-6.16,11.5-10.94,44.06-6.1,54.48-1.31-3.94-9.3-14.98-10.15-15.91-7.4-15.05-1.39-24.08-1.39-24.08-4.15,1.03-6.87,3.87-8.48,6.2-.35.51-1.2.21-1.12-.39,1.02-7.24-1.05-9.97-1.05-9.97-10.2,20.91-23.74-7.22-8.8-11.32,12.77-5.77,10.88-22.99,13.27-34.07.24-2.21-2.87-3.25-4.18-1.38-10.93,11.33-18.67,47.19-40.67,44.5-13.99-7.25-71.58-7.25-85.44,0C74.14,63.96,61.73-3.48,42.37.14c-13.87,4.11-16.83,41.28-16.26,48.14,3.24,46.19,3.65,66.41-16.51,107.11-13.03,34.56-12.44,28.83-.4,42.95,7.67,9.07,17.62,17.69,28.08,23.6,14.96,9.09,31.94,40.33,37.91,40.33,19.58-.78,26.27-21.58,51.1-20.23,10.65.58,21.33.58,31.98,0,24.84-1.36,31.52,19.44,51.1,20.23,5.41.13,20.28-26.44,34.09-37.53,11.37-7.51,23.38-15.67,31.9-26.4,12-14.08,12.62-8.43-.28-42.62Z"/>
        <path class="cls-11" d="m32,124.19c.6-9.82,1.66-33.14.23-59.22-.51-9.32-.17-18.67,1.19-27.92.7-4.75,1.65-9.53,2.95-13.22.65-1.84,3.41-1.94,4.24-.17,3.3,6.99,10.29,20.8,18.08,30.47,1.15,1.42.37,3.48-1.49,3.9-.64.15-1.31.27-1.97.36-2.06.26-3.42,2.12-2.92,4,1.1,4.17,4.46,9.88,14.56,9.46.8-.03,1.06.98.34,1.3-3.1,1.36-7.98,2.69-11.96.07,0,0,.81,4.89,3.8,7.33.65.53.23,1.55-.64,1.56-3.66.04-9.29-.82-11.26-6.1,0,0,1.8,12.79-1.9,21.93-.5,1.23-2.4,1.13-2.76-.14-.95-3.34-2.44-7.97-3.67-9.11,0,0,1.67,17.39-5.25,35.79-.31.83-1.64.58-1.58-.3Z"/>
      </g>
      <path class="cls-7" d="m160.11,111.24c-.28-.9-.32-1.87-.14-2.79s.58-1.8,1.14-2.56,1.33-1.47,2.17-1.98c1.13-.68,2.34-1.05,3.65-1.09.18,0,.36,0,.54-.02l1.58-.06,2.02-.08,2.28-.09,2.37-.1,2.29-.09,2.04-.08,1.61-.07,1.01-.04h.26s13.22-.23,13.22-.23c2.2-.31,3.02,2.37,1.02,3.34-6.66,2.23-20.57,7.08-27.25,9.45-3.96,1.94-8.67.27-9.82-3.5Z"/>
      <path class="cls-7" d="m124.07,111.35c.28-.9.32-1.87.14-2.79s-.58-1.8-1.14-2.56-1.33-1.47-2.17-1.98c-1.13-.68-2.34-1.05-3.65-1.09-.18,0-.36,0-.54-.02l-1.58-.06-2.02-.08-2.28-.09-2.37-.1-2.29-.09-2.04-.08-1.61-.07-1.01-.04h-.26s-13.22-.23-13.22-.23c-2.2-.31-3.02,2.37-1.02,3.34,6.66,2.23,20.57,7.08,27.25,9.45,3.96,1.94,8.67.27,9.82-3.5Z"/>
      <g>
        <path class="cls-1" d="m79.39,130.04h27.28c9.74,0,17.65,7.91,17.65,17.65v27.28h-15.68c-16.15,0-29.25-13.11-29.25-29.25v-15.68h0Z" transform="translate(203.72 305.01) rotate(-180)"/>
        <path d="m99.14,130.33c-7.76,1.63-13.67,10.12-13.67,20.36,0,11.4,7.34,20.65,16.39,20.65s16.39-9.24,16.39-20.65c0-5.13-1.49-9.82-3.94-13.43-4.18-3.65-9.4-6.13-15.16-6.93Z"/>
      </g>
      <g>
        <g>
          <path class="cls-10" d="m228.82,107.53c-1.5.85-2.9,2.01-4.51,2.48-1.79.53-2.46,2.04-3.64,3.09-.15.13-.16.5-.3.55-2.36.78-3.4,3.13-5.29,4.46-1.05.74-1.92,1.43-3.47,1.13-2.13-.41-4.53,1.44-5.41,3.54-.41.99-.94,1.96-1.58,2.81-.34.46-1.07.6-1.58.96-.84.6-1.75,1.16-2.45,1.91-1.24,1.34-2.62,2.32-4.36,2.93-1.12.39-2.1,1.17-3.14,1.78-.11.06-.25.2-.25.3.06,1.5-1.22,2.05-2.04,2.94-.72.79-1.63.89-2.59,1.19-1.27.39-3.34.45-3.75,1.42-.73,1.72-1.82,2.75-3.19,3.82-1.21.95-2,2.41-3.18,3.4-.61.51-1.67.63-2.53.66-1.33.04-2.13.66-2.41,1.87-.22.95-.78,1.34-1.61,1.72-1.68.77-2.84,1.98-3.17,3.97-.1.58-1,1.19-1.66,1.49-3.18,1.45-5.37,3.8-6.84,6.93-.32.69-.82,1.43-1.44,1.82-1.44.91-1.87,2.57-2.99,3.69-.74.74-1.57,1.41-2.31,2.15-.34.34-.64.74-.84,1.17-1.27,2.77-2.98,5.21-5.32,7.22.05-.15.06-.35.16-.43,2.11-1.62,2.58-4.06,3.23-6.41.04-.13,0-.35.06-.38,1.75-.79,1.56-2.83,2.61-4.06.94-1.11,1.87-2.24,2.84-3.33.15-.17.47-.21.72-.28,1.43-.41,2.32-1.54,2.36-3.07.03-1.02.38-1.71,1.34-2.27.62-.36,1.24-1.17,1.36-1.86.39-2.15,1.48-3.69,3.37-4.7.16-.08.36-.12.48-.24,1.14-1.13,2.3-2.25,3.39-3.44.24-.26.12-.81.32-1.13.77-1.27,1.49-2.65,3.2-2.88.83-.12,1.2-.57,1.38-1.39.38-1.77,1.76-2.72,3.11-3.75.76-.58,1.42-1.43,1.83-2.3.54-1.15,1.21-1.62,2.49-1.41,1.39.23,1.98-.92,2.62-1.83.6-.85.96-1.89,1.66-2.64.41-.43,1.28-.42,1.93-.65.39-.13,1.01-.26,1.09-.52.74-2.33,2.94-2.69,4.72-3.6.35-.18.73-.32,1.01-.58.64-.6,1.21-1.08,2.25-.82.38.1,1.22-.53,1.42-1.01.87-2.08,3.35-3.76,5.62-3.75.48,0,1.01-.37,1.44-.67.65-.45,1.16-1.13,1.85-1.48,1.59-.79,2.89-1.98,4.88-2.22,1.69-.2,3.34-1.36,4.83-2.37,1.51-1.02,2.99-1.92,4.68-2.68,2.23-1.01,4.38-2.27,6.7-3.13.16-.06.28-.22.42-.33.17.07.33.14.5.21Z"/>
          <path class="cls-10" d="m189.87,148.7c-.44-.5-.75-.86-.87-.99.47-.93.77-1.68,1.21-2.33.26-.39.87-.95,1.11-.86,1.42.51,2.34-.58,3.47-.93,2.39-.75,3.77-2.54,4.53-4.86.42-1.27,2.14-2.58,3.43-2.37,1.12.18,1.87-.22,2.58-.97.77-.81,1.46-1.78,2.38-2.36,1.75-1.11,3.83-1.76,5.41-3.04,2.05-1.66,4.8-2,6.63-4.13,1.06-1.23,2.98-1.71,4.52-2.51.23-.12.62-.1.74-.27,1.33-1.94,3.96-1.56,5.5-3.11.03-.03.15.03.39.09-.31.39-.5.84-.85,1.04-1.45.87-2.96,1.64-4.4,2.52-.81.49-2.07.61-1.88,2.11.02.16-1,.45-1.54.69-.39.17-1.05.26-1.14.53-.88,2.74-2.83,4.18-5.52,4.91-.49.13-1.15.81-1.17,1.26-.05,1.79-1.59,2.36-2.53,3.4-.52.58-1.24.98-1.88,1.47-.11.08-.24.23-.33.21-2.66-.5-2.84,1.69-3.59,3.28-.46.98-.9,1.98-1.5,2.87-.43.63-1.14,1.06-1.71,1.6-.66.62-1.21,1.51-1.99,1.82-.77.31-1.81-.14-2.64.08-.7.19-1.25.9-1.89,1.34-.7.48-1.42.96-2.16,1.37-.57.32-1.18.37-.97,1.39.3,1.46-.68,2.74-2.1,3.28-.9.34-1.76.76-2.65,1.15.11,1.02-1.27,2.79-2.79,2.94-2.24.22-3.34,1.69-4.46,3.28-.18.26-.37.51-.6.84-.91-.5-1.49-.21-2.1.7-.79,1.19-1.85,2.21-2.83,3.26-.17.18-.58.1-.85.2-.44.16-1.01.26-1.26.59-.78,1.02-1.43,2.14-2.13,3.22-.05.08-.09.18-.16.21-2.12,1-3.21,3.04-4.73,4.64-.22.23-.64.26-.92.45-.43.28-.89.56-1.22.93-.95,1.09-1.84,2.22-2.75,3.34-.28.34-.6.65-.86,1-.74.97-1.47,1.95-2.2,2.93-.12-.1-.25-.19-.37-.29,1.04-1.4,2.14-2.76,3.11-4.21.84-1.24,1.39-2.7,2.34-3.84.92-1.11,2.18-1.93,3.29-2.89.64-.55,1.16-1.04,1.52-1.98.62-1.6,1.08-3.44,3.05-4.37,1.22-.58,2.07-1.96,3.07-2.99.37-.38.61-.95,1.05-1.18,1.36-.72,1.59-2.19,2.37-3.28.65-.9,1.65-1.53,2.45-2.32.86-.84,1.67-1.73,2.5-2.61.18-.19.35-.63.48-.61,2.05.26,2.1-1.38,2.63-2.62.21-.5.58-1.01,1.01-1.32.86-.62,1.81-1.11,2.78-1.69Z"/>
        </g>
        <path class="cls-10" d="m229.59,134.44c-.98.61-1.98,1.18-2.91,1.85-.41.29-.65.81-1,1.2-.23.25-.48.49-.77.66-.65.38-1.42.6-1.41,1.6,0,.16-.6.5-.89.46-1.43-.19-2.13.5-2.61,1.75-.19.5-.74,1.09-1.23,1.19-1.86.41-2.39,2.01-3.24,3.33-.3.46-.51,1.17-.93,1.34-1.44.59-1.87,1.9-2.53,3.07-.09.16-.15.47-.22.47-1.84-.07-2.12,2.44-3.97,2.38-1.04-.04-1.09.76-1.09,1.5,0,2.15-.43,2.84-2.38,3.32-.89.22-1.84.23-2.76.34-.13.02-.34-.04-.39.03-.48.61-1.04,1.19-1.36,1.88-.31.66-1.24.34-1.48,1.45-.25,1.14-1.48,2.36-2.59,2.95-1.25.67-2.73.83-3.05,2.55-.03.15-.22.39-.34.39-2.44.1-2.32,2.67-3.69,3.79-.49.4-1.05.75-1.62,1.04-.71.36-1.29.66-.72,1.61.12.19-.1.79-.33.95-.99.67-2.15,1.11-3.04,1.88-.88.77-1.5,1.83-2.44,2.64.12-.29.2-.63.38-.87,1.63-2.12,3.02-4.52,4.99-6.26,1.67-1.47,2.62-3.18,3.59-5.04.49-.93,1.43-1.62,2.13-2.46,1.37-1.65,2.71-3.32,4.04-5,.13-.16.19-.42.19-.64-.02-1.59,1.41-2.11,2.23-3.09.76-.91,1.48-1.85,2.22-2.77.42-.51.81-1.05,1.29-1.49.38-.36.95-.53,1.29-.92.53-.6,1-.86,1.86-.62.78.22,1.5,0,1.95-.94.36-.75.69-1.82,1.94-1.7.14.01.34-.15.43-.28,1.37-1.96,3.4-2.98,5.4-4.15,1.68-.98,3.04-2.5,4.58-3.74.39-.32.94-.44,1.38-.7,1.56-.9,3.13-1.8,4.66-2.76,1.39-.87,2.73-1.82,4.1-2.73.11.17.22.34.33.51Z"/>
      </g>
      <g>
        <path class="cls-1" d="m189.36,130.04h15.68v27.28c0,9.74-7.91,17.65-17.65,17.65h-27.28v-15.68c0-16.15,13.11-29.25,29.25-29.25Z"/>
        <path class="cls-8" d="m185.29,130.33c-5.76.8-10.98,3.28-15.16,6.93-2.46,3.61-3.94,8.3-3.94,13.43,0,11.4,7.34,20.65,16.39,20.65s16.39-9.24,16.39-20.65c0-10.24-5.91-18.73-13.67-20.36Z"/>
      </g>
      <g>
        <path class="cls-5" d="m195.67,190.67c-13.11-4.64-27.11-10.01-38.46-18.09-2.05-1.69-4.36-2.94-6.8-3.74l-1.1-2.26,5.19-27.91c.26-1.28-1.4-2.03-2.19-.99l-4.88,6.43,1.63-22.8c.29-4.03-4.82-5.96-7.29-2.77-5.22,6.72-11.31,19.43-12.68,42.75-.19,3.19.04,6.38.65,9.5-9.77,4.51-18.45,12.88-29.21,15.37-9.23,3.25-21.07,6.37-22.9,18.15-2.25,5.96-3.56,25.65,5.4,31.43,15.62,14.31,40.06,41.8,66.41,35.71,19.65-2.15,39.46-25.37,51.58-35.71,12.24-11.76,8.68-38.73-5.33-45.06Z"/>
        <path class="cls-11" d="m147.9,180.96c-3.64-1.48-7.73-1.48-11.37,0-1.1.45-2.27,1.04-3.44,1.81-1.42.94-2.27,2.54-2.27,4.24-.04,1.74-.22,4.05,1.44,5.16,2.49,2.09,3.56-3.27,6.58-1.3,1.06.38,1.9,2.58,2.55,4.44.27.78,1.37.78,1.65,0,.66-1.86,1.49-4.06,2.55-4.44,3.02-1.97,4.09,3.39,6.58,1.3,1.66-1.11,1.48-3.42,1.44-5.16,0-1.7-.85-3.3-2.27-4.24-1.17-.78-2.35-1.37-3.44-1.81Z"/>
        <path class="cls-4" d="m129.32,222.03c-3.38-.13-6.63-1.27-9.46-3.12-1.03-.68-3.08-1.97-4.16-1.31-.13.08-.16.25-.1.39,1.79,3.99,5.26,9.58,10.13,12.38.63.36,1.44.21,1.91-.35,1.1-1.32,3.17-4.02,5.14-7.69.13-.24-.08-.52-.35-.48-.95.15-1.98.22-3.12.18Z"/>
        <g>
          <line class="cls-2" x1="142.32" y1="211.5" x2="142.32" y2="202.18"/>
          <g>
            <path class="cls-3" d="m174.4,229.2c-1.97-4.61-.23-9.48.95-14.01-4.84.16-8.59,2.03-10.77,3.46-11.41,7.78-22.26.39-22.26-7.14,0,7.53-10.84,14.9-22.26,7.14-2.19-1.43-5.95-3.3-10.81-3.46-.11.75,1.04,3.55,1.18,4.31,3.14,7.67-3.26,11.86,1.72,17.51,8.85,10.05,33.85,24.05,60.31,0,2.64-2.4,3.44-5.1,1.95-7.81Z"/>
            <path class="cls-6" d="m129.48,221.75c-3.36-.13-6.6-1.27-9.42-3.11-1.1-.72-2.59-1.54-4.41-2.21,1.75,3.98,5.31,10.78,10.26,13.63.63.36,1.43.21,1.9-.35,1.15-1.39,3.39-4.3,5.44-8.26-1.12.24-2.36.35-3.77.3Z"/>
            <path class="cls-2" d="m85.5,212.57c5,6,14.95,3.94,18.32,3.16,7.5-1.74,13.29.98,16.24,2.91s6.06,2.98,9.42,3.11c11.51.44,12.84-10.25,12.84-10.25,0,0,1.33,10.69,12.84,10.25,3.36-.13,6.6-1.27,9.42-3.11,3.16-2.06,9.56-5.03,17.83-2.48,2.94.9,12.08.41,17.08-4.59"/>
            <path class="cls-11" d="m142.32,235.78c-10.19-6.23-22.4,2.94-25.32,5.29,4,4,14,9,24,9h0c9,1,20-4,28-10-2.94-2.35-16.49-10.51-26.68-4.29Z"/>
          </g>
        </g>
      </g>
    </g>
  </g>
</svg>