<?xml version="1.0" encoding="UTF-8"?>
<svg id="Capa_2" data-name="Capa 2" xmlns="http://www.w3.org/2000/svg" viewBox="0 0 599.09 618.62">
  <defs>
    <style>
      .cls-1 {
        fill: #ddda52;
      }

      .cls-2 {
        fill: #e8e85b;
      }

      .cls-3 {
        fill: #d35b83;
      }

      .cls-4, .cls-5 {
        fill: #f2eee7;
      }

      .cls-4, .cls-6 {
        stroke-width: 2.14px;
      }

      .cls-4, .cls-6, .cls-7, .cls-8 {
        stroke: #000;
        stroke-miterlimit: 10;
      }

      .cls-9 {
        fill: #f2eea5;
      }

      .cls-6, .cls-8 {
        fill: none;
      }

      .cls-7 {
        fill: #e5dcb1;
        stroke-width: 1.07px;
      }

      .cls-10 {
        fill: #f9c0d3;
      }

      .cls-11 {
        fill: #ef6a90;
      }

      .cls-12 {
        fill: #1a1a1a;
      }

      .cls-8 {
        stroke-width: 2.3px;
      }
    </style>
  </defs>
  <g id="_3_4_FRONTAL_2" data-name="3/4 FRONTAL 2">
    <g>
      <rect class="cls-5" x="217.82" y="517.9" width="186.96" height="100.72" rx="25.46" ry="25.46"/>
      <g>
        <path class="cls-3" d="m530.87,78.23s7.17,98.57,43.6,64.29l-8.57,27.86h0s-4.68-1.45-4.68-1.45c-31.67-9.83-52.09-40.54-48.9-73.55h0s18.55-17.14,18.55-17.14"/>
        <path class="cls-12" d="m565.9,166.09c3.17-38.08,9.87-55.01,13.13-61.24.71-1.35,2.72-1.14,3.1.34,3.91,14.9-3.38,45.89-3.38,45.89-23.57,105,.02,182.6.02,182.6,27.65,73.26,26.32,61.17.6,91.33-18.25,22.99-43.98,40.47-68.35,56.56-29.61,23.76-34.25,79.08-45.84,78.8-42.99-1.72-40.56-46.78-97.93-41.41-20.36,1.9-40.81,1.8-61.18-.06-54.6-5-102.13,41.39-144.94,43.1-12.79.02-49.19-66.94-81.24-86.42-22.42-12.66-43.75-31.13-60.18-50.57-25.8-30.26-27.06-17.99.86-92.04,43.21-87.22,52.98-132.2,46.03-231.18-1.23-14.68,26.61-92.68,56.33-101.49,41.5-7.75,82.05,133.34,136.53,120.78,29.71-15.55,139.14-12.13,169.13,3.41l19.45,9.45s29.45-79.29,74.73-109.29c0,0,22.44,0,12.05,60.63-.59,3.46-1.81,6.81-3.61,9.82-6.56,10.98-21.77,41.11,4.15,48.29,4.72,1.31,9.9-.25,12.78-4.22,2.09-2.89,3.73-6.84,2.77-11.67,0,0,4.29,4.29,4.29,19.29,0,0,4.29-21.43,10.71-23.57"/>
        <path class="cls-11" d="m94.46,266.81c-19.62-2.49-4.29-62.14-.36-117.5,1.33-18.71-.38-37.51,2.68-56.09,1.57-9.55,3.72-19.16,6.66-26.57,1.46-3.69,28.65-42.84,50.13-2.36,7.45,14.04,23.19,41.8,40.75,61.22,2.59,2.86-3.52,3.29-7.71,4.15-1.44.29-2.79-.17-4.29,0-4.65.52-7.79,6.53-6.67,10.3,2.49,8.39,14.33,30.57,37.09,29.72,1.8-.07,2.4,1.98.77,2.61-6.99,2.74-17.99,5.41-26.95.14,0,0,1.84,9.81,8.57,14.74,1.47,1.07.52,3.11-1.44,3.13-8.25.08-20.95-1.64-25.38-12.25,0,0,4.05,25.69-4.28,44.06-1.12,2.46-5.41-6.3-6.22-8.84-2.15-6.71-5.51-16.01-8.27-18.3,0,0,2.77,39.69-29.37,58.98-1.55.93-20.55,13.51-25.71,12.86Z"/>
        <path class="cls-5" d="m400.95,239.13c-.59-1.94-.74-3.99-.43-5.94.3-1.96,1.04-3.8,2.08-5.38s2.51-3.05,4.14-4.08c2.16-1.38,4.51-2.1,7.08-2.12.35,0,.71,0,1.06,0l3.08-.05,3.94-.06c1.49-.02,2.97-.05,4.46-.07,1.55-.02,3.09-.05,4.64-.07s2.99-.05,4.48-.07c1.33-.02,2.66-.04,3.99-.06l3.15-.05,1.98-.03h.51s25.85.29,25.85.29c4.29-.53,6.04,5.2,2.2,7.17-12.9,4.35-39.84,13.87-52.78,18.54-7.65,3.9-16.95.08-19.42-7.99Z"/>
        <path class="cls-5" d="m321.58,239.13c.59-1.94.69-4,.3-5.98-.39-1.98-1.25-3.86-2.44-5.49s-2.85-3.15-4.65-4.24c-2.41-1.46-5.01-2.25-7.82-2.34-.39-.01-.78-.02-1.16-.04l-3.38-.14-4.32-.18c-1.63-.07-3.26-.13-4.89-.2-1.7-.07-3.39-.14-5.09-.21-1.64-.07-3.28-.13-4.91-.2l-4.37-.18-3.46-.14-2.17-.09-.56-.02-28.33-.46c-4.71-.66-6.47,5.07-2.2,7.17,14.27,4.77,44.08,15.17,58.4,20.26,8.5,4.16,18.58.58,21.05-7.49Z"/>
        <path class="cls-2" d="m208.03,278.67h72.91c22.73,0,41.18,18.45,41.18,41.18v55.1h-45.85c-37.66,0-68.24-30.58-68.24-68.24v-28.04h0Z" transform="translate(530.16 653.61) rotate(-180)"/>
        <path d="m259.26,278.9c-11.24,8.17-18.8,23.45-18.8,40.97,0,26.12,16.81,47.29,37.54,47.29s37.54-21.17,37.54-47.29c0-.82-.06-1.63-.09-2.44-10.27-21.4-31.36-36.59-56.18-38.52Z"/>
        <g>
          <g>
            <path class="cls-10" d="m529.69,229.14c-2.76,1.96-5.41,4.53-8.31,5.73-3.24,1.34-4.62,4.53-6.87,6.83-.28.29-.35,1.05-.61,1.17-4.28,1.94-6.44,6.88-9.98,9.88-1.96,1.67-3.59,3.2-6.28,2.81-3.7-.53-8.2,3.6-10.05,8.02-.87,2.08-1.93,4.14-3.19,5.97-.67.98-1.98,1.39-2.92,2.2-1.58,1.35-3.26,2.62-4.59,4.25-2.38,2.91-4.96,5.11-8.11,6.62-2.02.97-3.87,2.69-5.79,4.09-.2.15-.47.45-.48.65-.11,3.06-2.46,4.37-4.02,6.3-1.39,1.71-2.99,2.06-4.73,2.81-2.29.99-5.95,1.4-6.81,3.44-1.53,3.62-3.6,5.87-6.17,8.27-2.26,2.11-3.87,5.22-6.1,7.4-1.15,1.13-3.03,1.53-4.56,1.71-2.36.28-3.85,1.67-4.52,4.18-.53,1.97-1.56,2.85-3.1,3.75-3.07,1.81-5.29,4.45-6.16,8.56-.25,1.2-1.93,2.57-3.15,3.29-5.81,3.42-10.01,8.55-13.06,15.15-.67,1.45-1.65,3.03-2.8,3.93-2.67,2.08-3.67,5.52-5.8,7.97-1.42,1.63-2.97,3.1-4.39,4.73-.64.74-1.24,1.61-1.65,2.52-2.64,5.84-6.01,11.07-10.43,15.53.11-.31.16-.73.35-.9,3.96-3.61,5.13-8.66,6.62-13.56.08-.26.05-.72.17-.79,3.21-1.87,3.16-6,5.19-8.68,1.82-2.41,3.62-4.85,5.48-7.22.3-.38.87-.5,1.32-.68,2.58-1.04,4.31-3.47,4.6-6.62.19-2.08.93-3.55,2.68-4.83,1.15-.83,2.35-2.56,2.67-4,1.01-4.44,3.15-7.74,6.63-10.1.29-.2.65-.3.88-.56,2.18-2.48,4.38-4.94,6.47-7.52.45-.56.33-1.67.73-2.36,1.55-2.71,3.01-5.62,6.05-6.35,1.48-.36,2.2-1.34,2.63-3.03.94-3.67,3.5-5.82,6.03-8.11,1.42-1.3,2.71-3.13,3.55-4.96,1.12-2.43,2.38-3.48,4.59-3.25,2.42.26,3.62-2.17,4.88-4.12,1.18-1.82,1.97-4.01,3.3-5.62.78-.95,2.31-1.05,3.49-1.6.7-.33,1.81-.67,2-1.22,1.64-4.88,5.57-5.91,8.84-8.05.64-.41,1.34-.77,1.86-1.33,1.22-1.31,2.29-2.38,4.09-2,.65.14,2.22-1.26,2.64-2.26,1.84-4.38,6.46-8.17,10.45-8.49.85-.07,1.83-.9,2.64-1.58,1.2-1.02,2.21-2.49,3.47-3.28,2.91-1.84,5.38-4.47,8.92-5.24,3-.65,6.09-3.26,8.85-5.54,2.8-2.31,5.55-4.35,8.64-6.15,4.08-2.38,8.05-5.27,12.27-7.38.29-.14.53-.49.79-.74.28.12.56.24.84.36Z"/>
            <path class="cls-10" d="m455.08,318.91c-.71-.96-1.2-1.64-1.39-1.9.96-1.96,1.59-3.53,2.47-4.93.52-.83,1.67-2.07,2.09-1.92,2.42.84,4.21-1.53,6.25-2.41,4.32-1.88,7.01-5.73,8.69-10.58.92-2.66,4.15-5.57,6.39-5.33,1.95.21,3.32-.73,4.68-2.36,1.47-1.77,2.82-3.84,4.53-5.17,3.24-2.52,7-4.15,9.98-7,3.85-3.68,8.75-4.78,12.29-9.41,2.04-2.66,5.5-3.92,8.34-5.79.43-.28,1.1-.29,1.34-.67,2.62-4.16,7.2-3.76,10.14-7.15.06-.06.26.05.67.14-.59.84-1.01,1.78-1.64,2.25-2.67,2-5.45,3.78-8.12,5.79-1.49,1.12-3.74,1.54-3.62,4.58.01.32-1.83,1.07-2.81,1.63-.72.41-1.89.69-2.09,1.26-1.96,5.73-5.6,8.96-10.43,10.83-.87.34-2.15,1.83-2.24,2.74-.35,3.66-3.15,5.05-4.95,7.32-1,1.27-2.34,2.19-3.52,3.27-.2.18-.45.5-.61.48-4.62-.63-5.25,3.86-6.8,7.23-.95,2.06-1.87,4.18-3.07,6.07-.85,1.35-2.17,2.34-3.25,3.51-1.26,1.37-2.35,3.26-3.77,4.01-1.4.74-3.18-.03-4.67.56-1.26.49-2.33,2.01-3.53,3.01-1.31,1.09-2.64,2.16-4.01,3.11-1.05.73-2.13.92-1.91,2.98.31,2.95-1.6,5.69-4.17,7-1.63.83-3.22,1.81-4.84,2.74.05,2.06-2.64,5.89-5.34,6.41-3.99.78-6.14,3.94-8.34,7.35-.35.55-.72,1.09-1.19,1.8-1.53-.88-2.59-.21-3.79,1.73-1.57,2.54-3.58,4.78-5.47,7.06-.32.38-1.03.28-1.53.53-.8.39-1.82.68-2.3,1.38-1.52,2.2-2.83,4.58-4.22,6.89-.1.16-.19.38-.32.46-3.88,2.34-6.1,6.67-9.01,10.17-.42.51-1.16.63-1.69,1.05-.8.63-1.65,1.27-2.28,2.09-1.83,2.35-3.56,4.81-5.34,7.21-.54.73-1.14,1.42-1.66,2.17-1.45,2.09-2.87,4.2-4.3,6.3-.21-.18-.41-.35-.62-.53,2.04-3.01,4.16-5.95,6.09-9.04,1.66-2.66,2.85-5.72,4.68-8.19,1.78-2.4,4.13-4.26,6.22-6.37,1.21-1.22,2.19-2.29,2.97-4.27,1.32-3.36,2.4-7.19,6.01-9.37,2.24-1.35,3.93-4.3,5.84-6.55.7-.83,1.22-2.03,2.02-2.56,2.51-1.67,3.11-4.7,4.66-7.04,1.27-1.93,3.12-3.37,4.65-5.1,1.63-1.85,3.2-3.78,4.78-5.69.35-.42.7-1.33.93-1.32,3.57.24,3.9-3.13,5.01-5.74.45-1.05,1.17-2.15,1.98-2.85,1.6-1.39,3.34-2.53,5.15-3.85Z"/>
          </g>
          <path class="cls-10" d="m527.13,283.99c-1.81,1.39-3.66,2.69-5.4,4.2-.76.66-1.27,1.76-1.94,2.6-.43.54-.93,1.07-1.46,1.46-1.2.87-2.58,1.43-2.72,3.48-.02.33-1.14,1.1-1.64,1.07-2.5-.19-3.83,1.32-4.86,3.96-.41,1.04-1.47,2.33-2.34,2.62-3.34,1.12-4.5,4.45-6.2,7.27-.6.99-1.06,2.45-1.83,2.87-2.62,1.41-3.58,4.16-4.91,6.64-.18.33-.34.99-.45.99-3.24.13-4.09,5.3-7.33,5.44-1.82.08-2.03,1.71-2.14,3.22-.3,4.4-1.17,5.86-4.67,7.13-1.61.58-3.27.75-4.91,1.09-.24.05-.59-.04-.7.11-.93,1.31-2,2.58-2.67,4.03-.65,1.4-2.24.88-2.82,3.18-.6,2.37-2.95,5.03-5,6.41-2.3,1.55-4.92,2.09-5.74,5.65-.07.32-.44.83-.65.85-4.31.56-4.47,5.79-7.05,8.27-.93.89-1.95,1.69-3,2.36-1.3.83-2.37,1.53-1.51,3.4.18.38-.29,1.63-.73,1.99-1.84,1.5-3.96,2.57-5.63,4.27-1.66,1.69-2.91,3.96-4.69,5.75.26-.62.44-1.31.8-1.84,3.18-4.58,5.99-9.66,9.71-13.51,3.15-3.25,5.08-6.87,7.06-10.81,1-1.98,2.76-3.52,4.11-5.33,2.65-3.57,5.25-7.18,7.85-10.8.25-.35.4-.89.42-1.32.19-3.25,2.79-4.52,4.38-6.63,1.47-1.96,2.87-3.99,4.32-5.98.81-1.1,1.59-2.25,2.49-3.24.72-.79,1.76-1.22,2.41-2.06,1.02-1.3,1.89-1.9,3.36-1.54,1.34.33,2.64-.21,3.58-2.21.75-1.59,1.49-3.81,3.67-3.75.24,0,.62-.35.81-.64,2.69-4.2,6.43-6.59,10.12-9.26,3.1-2.25,5.73-5.55,8.62-8.3.74-.7,1.71-1.03,2.54-1.62,2.88-2.07,5.77-4.13,8.61-6.31,2.58-1.98,5.08-4.11,7.62-6.17.17.33.34.67.51,1Z"/>
        </g>
        <g>
          <path class="cls-1" d="m458.51,278.67h23.72v61.51c0,19.19-15.58,34.77-34.77,34.77h-46.56v-38.66c0-31.8,25.82-57.62,57.62-57.62Z"/>
          <path class="cls-9" d="m480.18,322.52c0-21.23-10.86-38.98-25.46-43.72-11.56.75-22.2,4.91-30.91,11.48-6.2,8.18-10.06,19.59-10.06,32.23,0,24.85,14.87,45,33.21,45s33.21-20.15,33.21-45Z"/>
        </g>
        <g>
          <path class="cls-4" d="m456.81,409.5c-3.9-3.75-14.51-13.59-18.42-17.34-13.21-12.66-12.04-9.6-32.94-24.47-4.01-3.32-8.49-5.84-13.23-7.55-.85-.31-1.54-.94-1.89-1.78h0c-3.56-8.63-4.03-18.22-1.31-27.15l10.8-35.48c.56-2.75-3.17-5.07-4.87-2.83l-14.42,15.69,17.14-55.72c.62-8.63-16.12-6.84-21.43,0-11.19,14.41-21.7,38.49-24.64,88.45-.4,6.83.08,13.67,1.39,20.37-20.93,9.66-82.4,31.9-105.46,37.22-19.78,6.97-45.14,13.66-49.08,38.9-4.83,12.76-7.63,54.96,11.57,67.34,33.46,30.66,122.28,87.42,178.73,74.39,42.11-4.6,48.12-54.36,74.1-76.53,24.6-23.62,22.66-65.85-6.06-93.52Z"/>
          <path class="cls-11" d="m374.8,383.5c-7.8-3.18-16.57,1.11-24.37,4.29-2.35.96-4.87,2.22-7.38,3.89-3.04,2.02-4.85,5.44-4.85,9.09-.08,3.73-.47,8.68,3.09,11.06,5.34,4.49,7.63-7,14.1-2.78,2.28.82,4.06,5.53,5.47,9.52.59,1.67,9.37,1.67,9.96,0,1.41-4,2.1-9.51,4.38-10.33,6.46-4.22,3.42,3.79,8.76-.7,3.57-2.38,3.17-7.33,3.09-11.06,0-3.65-1.81-7.07-4.85-9.09-2.51-1.66-5.03-2.93-7.38-3.89Z"/>
          <path class="cls-7" d="m320.54,475.74c-7.24-.27-8.57-2.14-17.14-4.29-2.57-.64-6.43-2.14-8.31-3-.29-.13-.35.54-.21.83,3.83,8.54,11.26,20.53,21.72,26.54,1.36.78,1.81,1.34,4.09-.75,2.19-2.01,10.65-9.33,14.87-17.2.28-.52-4.02-.41-4.6-.31-2.03.33-7.97-1.74-10.4-1.83Z"/>
          <path class="cls-6" d="m230.28,474.71c23.65-14.49,53.82-11.83,66.68-5.4,8.13,4.07,30,10.71,44.44,6.49,23.79-6.96,27.64-22.07,27.64-22.07,0,0,3.87,22.94,28.64,22,7.24-.27,15.37-4.8,21.43-8.77,9.2-6.02,21.26-6.74,43.68,5.6"/>
          <line class="cls-8" x1="369.26" y1="433.69" x2="369.26" y2="457.52"/>
        </g>
      </g>
    </g>
  </g>
</svg>